ISO-10303-21;
HEADER;
/* Generated by software containing ST-Developer
 * from STEP Tools, Inc. (www.steptools.com) 
 */

FILE_DESCRIPTION(
/* description */ (''),
/* implementation_level */ '2;1');

FILE_NAME(
/* name */ 'EZ-Phoresis_base.step',
/* time_stamp */ '2026-09-10T19:19:16+03:00',
/* author */ (''),
/* organization */ (''),
/* preprocessor_version */ 'ST-DEVELOPER v20.2',
/* originating_system */ 'Autodesk Translation Framework v15.15.0.0',
/* authorisation */ '');

FILE_SCHEMA (('AUTOMOTIVE_DESIGN { 1 0 10303 214 3 1 1 }'));
ENDSEC;

DATA;
#10=MECHANICAL_DESIGN_GEOMETRIC_PRESENTATION_REPRESENTATION('',(#13),#625);
#11=SHAPE_REPRESENTATION_RELATIONSHIP('SRR','None',#632,#12);
#12=ADVANCED_BREP_SHAPE_REPRESENTATION('',(#14),#624);
#13=STYLED_ITEM('',(#641),#14);
#14=MANIFOLD_SOLID_BREP('Base',#377);
#15=FACE_BOUND('',#62,.T.);
#16=FACE_BOUND('',#65,.T.);
#17=FACE_BOUND('',#67,.T.);
#18=FACE_BOUND('',#68,.T.);
#19=FACE_BOUND('',#76,.T.);
#20=FACE_BOUND('',#77,.T.);
#21=FACE_BOUND('',#87,.T.);
#22=PLANE('',#394);
#23=PLANE('',#399);
#24=PLANE('',#401);
#25=PLANE('',#402);
#26=PLANE('',#407);
#27=PLANE('',#408);
#28=PLANE('',#409);
#29=PLANE('',#410);
#30=PLANE('',#411);
#31=PLANE('',#412);
#32=PLANE('',#413);
#33=PLANE('',#414);
#34=PLANE('',#415);
#35=PLANE('',#416);
#36=PLANE('',#417);
#37=PLANE('',#418);
#38=PLANE('',#419);
#39=FACE_OUTER_BOUND('',#60,.T.);
#40=FACE_OUTER_BOUND('',#61,.T.);
#41=FACE_OUTER_BOUND('',#63,.T.);
#42=FACE_OUTER_BOUND('',#64,.T.);
#43=FACE_OUTER_BOUND('',#66,.T.);
#44=FACE_OUTER_BOUND('',#69,.T.);
#45=FACE_OUTER_BOUND('',#70,.T.);
#46=FACE_OUTER_BOUND('',#71,.T.);
#47=FACE_OUTER_BOUND('',#72,.T.);
#48=FACE_OUTER_BOUND('',#73,.T.);
#49=FACE_OUTER_BOUND('',#74,.T.);
#50=FACE_OUTER_BOUND('',#75,.T.);
#51=FACE_OUTER_BOUND('',#78,.T.);
#52=FACE_OUTER_BOUND('',#79,.T.);
#53=FACE_OUTER_BOUND('',#80,.T.);
#54=FACE_OUTER_BOUND('',#81,.T.);
#55=FACE_OUTER_BOUND('',#82,.T.);
#56=FACE_OUTER_BOUND('',#83,.T.);
#57=FACE_OUTER_BOUND('',#84,.T.);
#58=FACE_OUTER_BOUND('',#85,.T.);
#59=FACE_OUTER_BOUND('',#86,.T.);
#60=EDGE_LOOP('',(#256,#257,#258,#259));
#61=EDGE_LOOP('',(#260));
#62=EDGE_LOOP('',(#261));
#63=EDGE_LOOP('',(#262,#263,#264,#265));
#64=EDGE_LOOP('',(#266));
#65=EDGE_LOOP('',(#267));
#66=EDGE_LOOP('',(#268,#269,#270,#271));
#67=EDGE_LOOP('',(#272));
#68=EDGE_LOOP('',(#273));
#69=EDGE_LOOP('',(#274,#275,#276,#277));
#70=EDGE_LOOP('',(#278,#279,#280,#281));
#71=EDGE_LOOP('',(#282,#283,#284,#285));
#72=EDGE_LOOP('',(#286,#287,#288,#289));
#73=EDGE_LOOP('',(#290,#291,#292,#293,#294,#295,#296,#297));
#74=EDGE_LOOP('',(#298,#299,#300,#301));
#75=EDGE_LOOP('',(#302,#303,#304,#305,#306,#307,#308,#309));
#76=EDGE_LOOP('',(#310));
#77=EDGE_LOOP('',(#311));
#78=EDGE_LOOP('',(#312,#313,#314,#315));
#79=EDGE_LOOP('',(#316,#317,#318,#319));
#80=EDGE_LOOP('',(#320,#321,#322,#323));
#81=EDGE_LOOP('',(#324,#325,#326,#327));
#82=EDGE_LOOP('',(#328,#329,#330,#331));
#83=EDGE_LOOP('',(#332,#333,#334,#335));
#84=EDGE_LOOP('',(#336,#337,#338,#339));
#85=EDGE_LOOP('',(#340,#341,#342,#343));
#86=EDGE_LOOP('',(#344,#345,#346,#347));
#87=EDGE_LOOP('',(#348,#349,#350,#351));
#88=LINE('',#525,#128);
#89=LINE('',#534,#129);
#90=LINE('',#542,#130);
#91=LINE('',#544,#131);
#92=LINE('',#546,#132);
#93=LINE('',#547,#133);
#94=LINE('',#551,#134);
#95=LINE('',#553,#135);
#96=LINE('',#555,#136);
#97=LINE('',#556,#137);
#98=LINE('',#560,#138);
#99=LINE('',#564,#139);
#100=LINE('',#568,#140);
#101=LINE('',#570,#141);
#102=LINE('',#572,#142);
#103=LINE('',#573,#143);
#104=LINE('',#576,#144);
#105=LINE('',#578,#145);
#106=LINE('',#579,#146);
#107=LINE('',#581,#147);
#108=LINE('',#583,#148);
#109=LINE('',#584,#149);
#110=LINE('',#587,#150);
#111=LINE('',#588,#151);
#112=LINE('',#591,#152);
#113=LINE('',#593,#153);
#114=LINE('',#594,#154);
#115=LINE('',#596,#155);
#116=LINE('',#597,#156);
#117=LINE('',#599,#157);
#118=LINE('',#603,#158);
#119=LINE('',#605,#159);
#120=LINE('',#607,#160);
#121=LINE('',#608,#161);
#122=LINE('',#610,#162);
#123=LINE('',#611,#163);
#124=LINE('',#614,#164);
#125=LINE('',#616,#165);
#126=LINE('',#618,#166);
#127=LINE('',#620,#167);
#128=VECTOR('',#426,5.5);
#129=VECTOR('',#437,5.5);
#130=VECTOR('',#446,10.);
#131=VECTOR('',#447,10.);
#132=VECTOR('',#448,10.);
#133=VECTOR('',#449,10.);
#134=VECTOR('',#452,10.);
#135=VECTOR('',#453,10.);
#136=VECTOR('',#454,10.);
#137=VECTOR('',#455,10.);
#138=VECTOR('',#460,4.);
#139=VECTOR('',#465,4.);
#140=VECTOR('',#468,10.);
#141=VECTOR('',#469,10.);
#142=VECTOR('',#470,10.);
#143=VECTOR('',#471,10.);
#144=VECTOR('',#474,10.);
#145=VECTOR('',#475,10.);
#146=VECTOR('',#476,10.);
#147=VECTOR('',#477,10.);
#148=VECTOR('',#478,10.);
#149=VECTOR('',#479,10.);
#150=VECTOR('',#482,10.);
#151=VECTOR('',#483,10.);
#152=VECTOR('',#486,10.);
#153=VECTOR('',#487,10.);
#154=VECTOR('',#488,10.);
#155=VECTOR('',#489,10.);
#156=VECTOR('',#490,10.);
#157=VECTOR('',#493,10.);
#158=VECTOR('',#496,10.);
#159=VECTOR('',#497,10.);
#160=VECTOR('',#498,10.);
#161=VECTOR('',#499,10.);
#162=VECTOR('',#502,10.);
#163=VECTOR('',#503,10.);
#164=VECTOR('',#508,10.);
#165=VECTOR('',#511,10.);
#166=VECTOR('',#514,10.);
#167=VECTOR('',#517,10.);
#168=CIRCLE('',#392,5.5);
#169=CIRCLE('',#393,5.5);
#170=CIRCLE('',#395,4.);
#171=CIRCLE('',#397,5.5);
#172=CIRCLE('',#398,5.5);
#173=CIRCLE('',#400,4.);
#174=CIRCLE('',#404,4.);
#175=CIRCLE('',#406,4.);
#176=VERTEX_POINT('',#522);
#177=VERTEX_POINT('',#524);
#178=VERTEX_POINT('',#528);
#179=VERTEX_POINT('',#531);
#180=VERTEX_POINT('',#533);
#181=VERTEX_POINT('',#537);
#182=VERTEX_POINT('',#540);
#183=VERTEX_POINT('',#541);
#184=VERTEX_POINT('',#543);
#185=VERTEX_POINT('',#545);
#186=VERTEX_POINT('',#549);
#187=VERTEX_POINT('',#550);
#188=VERTEX_POINT('',#552);
#189=VERTEX_POINT('',#554);
#190=VERTEX_POINT('',#558);
#191=VERTEX_POINT('',#562);
#192=VERTEX_POINT('',#566);
#193=VERTEX_POINT('',#567);
#194=VERTEX_POINT('',#569);
#195=VERTEX_POINT('',#571);
#196=VERTEX_POINT('',#575);
#197=VERTEX_POINT('',#577);
#198=VERTEX_POINT('',#580);
#199=VERTEX_POINT('',#582);
#200=VERTEX_POINT('',#586);
#201=VERTEX_POINT('',#590);
#202=VERTEX_POINT('',#592);
#203=VERTEX_POINT('',#595);
#204=VERTEX_POINT('',#601);
#205=VERTEX_POINT('',#602);
#206=VERTEX_POINT('',#604);
#207=VERTEX_POINT('',#606);
#208=EDGE_CURVE('',#176,#176,#168,.T.);
#209=EDGE_CURVE('',#176,#177,#88,.T.);
#210=EDGE_CURVE('',#177,#177,#169,.T.);
#211=EDGE_CURVE('',#178,#178,#170,.T.);
#212=EDGE_CURVE('',#179,#179,#171,.T.);
#213=EDGE_CURVE('',#179,#180,#89,.T.);
#214=EDGE_CURVE('',#180,#180,#172,.T.);
#215=EDGE_CURVE('',#181,#181,#173,.T.);
#216=EDGE_CURVE('',#182,#183,#90,.T.);
#217=EDGE_CURVE('',#182,#184,#91,.T.);
#218=EDGE_CURVE('',#185,#184,#92,.T.);
#219=EDGE_CURVE('',#183,#185,#93,.T.);
#220=EDGE_CURVE('',#186,#187,#94,.T.);
#221=EDGE_CURVE('',#187,#188,#95,.T.);
#222=EDGE_CURVE('',#188,#189,#96,.T.);
#223=EDGE_CURVE('',#189,#186,#97,.T.);
#224=EDGE_CURVE('',#190,#190,#174,.T.);
#225=EDGE_CURVE('',#190,#178,#98,.T.);
#226=EDGE_CURVE('',#191,#191,#175,.T.);
#227=EDGE_CURVE('',#191,#181,#99,.T.);
#228=EDGE_CURVE('',#192,#193,#100,.T.);
#229=EDGE_CURVE('',#194,#192,#101,.T.);
#230=EDGE_CURVE('',#195,#194,#102,.T.);
#231=EDGE_CURVE('',#193,#195,#103,.T.);
#232=EDGE_CURVE('',#193,#196,#104,.T.);
#233=EDGE_CURVE('',#196,#197,#105,.T.);
#234=EDGE_CURVE('',#197,#188,#106,.T.);
#235=EDGE_CURVE('',#187,#198,#107,.F.);
#236=EDGE_CURVE('',#199,#198,#108,.T.);
#237=EDGE_CURVE('',#192,#199,#109,.F.);
#238=EDGE_CURVE('',#200,#195,#110,.T.);
#239=EDGE_CURVE('',#196,#200,#111,.T.);
#240=EDGE_CURVE('',#194,#201,#112,.F.);
#241=EDGE_CURVE('',#202,#201,#113,.T.);
#242=EDGE_CURVE('',#186,#202,#114,.T.);
#243=EDGE_CURVE('',#189,#203,#115,.T.);
#244=EDGE_CURVE('',#203,#200,#116,.T.);
#245=EDGE_CURVE('',#203,#197,#117,.T.);
#246=EDGE_CURVE('',#204,#205,#118,.T.);
#247=EDGE_CURVE('',#205,#206,#119,.T.);
#248=EDGE_CURVE('',#207,#206,#120,.T.);
#249=EDGE_CURVE('',#204,#207,#121,.T.);
#250=EDGE_CURVE('',#182,#204,#122,.T.);
#251=EDGE_CURVE('',#205,#183,#123,.T.);
#252=EDGE_CURVE('',#201,#199,#124,.T.);
#253=EDGE_CURVE('',#198,#202,#125,.T.);
#254=EDGE_CURVE('',#206,#185,#126,.T.);
#255=EDGE_CURVE('',#184,#207,#127,.T.);
#256=ORIENTED_EDGE('',*,*,#208,.F.);
#257=ORIENTED_EDGE('',*,*,#209,.T.);
#258=ORIENTED_EDGE('',*,*,#210,.F.);
#259=ORIENTED_EDGE('',*,*,#209,.F.);
#260=ORIENTED_EDGE('',*,*,#210,.T.);
#261=ORIENTED_EDGE('',*,*,#211,.F.);
#262=ORIENTED_EDGE('',*,*,#212,.F.);
#263=ORIENTED_EDGE('',*,*,#213,.T.);
#264=ORIENTED_EDGE('',*,*,#214,.T.);
#265=ORIENTED_EDGE('',*,*,#213,.F.);
#266=ORIENTED_EDGE('',*,*,#214,.F.);
#267=ORIENTED_EDGE('',*,*,#215,.F.);
#268=ORIENTED_EDGE('',*,*,#216,.F.);
#269=ORIENTED_EDGE('',*,*,#217,.T.);
#270=ORIENTED_EDGE('',*,*,#218,.F.);
#271=ORIENTED_EDGE('',*,*,#219,.F.);
#272=ORIENTED_EDGE('',*,*,#208,.T.);
#273=ORIENTED_EDGE('',*,*,#212,.T.);
#274=ORIENTED_EDGE('',*,*,#220,.T.);
#275=ORIENTED_EDGE('',*,*,#221,.T.);
#276=ORIENTED_EDGE('',*,*,#222,.T.);
#277=ORIENTED_EDGE('',*,*,#223,.T.);
#278=ORIENTED_EDGE('',*,*,#224,.F.);
#279=ORIENTED_EDGE('',*,*,#225,.T.);
#280=ORIENTED_EDGE('',*,*,#211,.T.);
#281=ORIENTED_EDGE('',*,*,#225,.F.);
#282=ORIENTED_EDGE('',*,*,#226,.F.);
#283=ORIENTED_EDGE('',*,*,#227,.T.);
#284=ORIENTED_EDGE('',*,*,#215,.T.);
#285=ORIENTED_EDGE('',*,*,#227,.F.);
#286=ORIENTED_EDGE('',*,*,#228,.F.);
#287=ORIENTED_EDGE('',*,*,#229,.F.);
#288=ORIENTED_EDGE('',*,*,#230,.F.);
#289=ORIENTED_EDGE('',*,*,#231,.F.);
#290=ORIENTED_EDGE('',*,*,#228,.T.);
#291=ORIENTED_EDGE('',*,*,#232,.T.);
#292=ORIENTED_EDGE('',*,*,#233,.T.);
#293=ORIENTED_EDGE('',*,*,#234,.T.);
#294=ORIENTED_EDGE('',*,*,#221,.F.);
#295=ORIENTED_EDGE('',*,*,#235,.T.);
#296=ORIENTED_EDGE('',*,*,#236,.F.);
#297=ORIENTED_EDGE('',*,*,#237,.F.);
#298=ORIENTED_EDGE('',*,*,#231,.T.);
#299=ORIENTED_EDGE('',*,*,#238,.F.);
#300=ORIENTED_EDGE('',*,*,#239,.F.);
#301=ORIENTED_EDGE('',*,*,#232,.F.);
#302=ORIENTED_EDGE('',*,*,#230,.T.);
#303=ORIENTED_EDGE('',*,*,#240,.T.);
#304=ORIENTED_EDGE('',*,*,#241,.F.);
#305=ORIENTED_EDGE('',*,*,#242,.F.);
#306=ORIENTED_EDGE('',*,*,#223,.F.);
#307=ORIENTED_EDGE('',*,*,#243,.T.);
#308=ORIENTED_EDGE('',*,*,#244,.T.);
#309=ORIENTED_EDGE('',*,*,#238,.T.);
#310=ORIENTED_EDGE('',*,*,#224,.T.);
#311=ORIENTED_EDGE('',*,*,#226,.T.);
#312=ORIENTED_EDGE('',*,*,#234,.F.);
#313=ORIENTED_EDGE('',*,*,#245,.F.);
#314=ORIENTED_EDGE('',*,*,#243,.F.);
#315=ORIENTED_EDGE('',*,*,#222,.F.);
#316=ORIENTED_EDGE('',*,*,#246,.T.);
#317=ORIENTED_EDGE('',*,*,#247,.T.);
#318=ORIENTED_EDGE('',*,*,#248,.F.);
#319=ORIENTED_EDGE('',*,*,#249,.F.);
#320=ORIENTED_EDGE('',*,*,#246,.F.);
#321=ORIENTED_EDGE('',*,*,#250,.F.);
#322=ORIENTED_EDGE('',*,*,#216,.T.);
#323=ORIENTED_EDGE('',*,*,#251,.F.);
#324=ORIENTED_EDGE('',*,*,#233,.F.);
#325=ORIENTED_EDGE('',*,*,#239,.T.);
#326=ORIENTED_EDGE('',*,*,#244,.F.);
#327=ORIENTED_EDGE('',*,*,#245,.T.);
#328=ORIENTED_EDGE('',*,*,#229,.T.);
#329=ORIENTED_EDGE('',*,*,#237,.T.);
#330=ORIENTED_EDGE('',*,*,#252,.F.);
#331=ORIENTED_EDGE('',*,*,#240,.F.);
#332=ORIENTED_EDGE('',*,*,#242,.T.);
#333=ORIENTED_EDGE('',*,*,#253,.F.);
#334=ORIENTED_EDGE('',*,*,#235,.F.);
#335=ORIENTED_EDGE('',*,*,#220,.F.);
#336=ORIENTED_EDGE('',*,*,#251,.T.);
#337=ORIENTED_EDGE('',*,*,#219,.T.);
#338=ORIENTED_EDGE('',*,*,#254,.F.);
#339=ORIENTED_EDGE('',*,*,#247,.F.);
#340=ORIENTED_EDGE('',*,*,#250,.T.);
#341=ORIENTED_EDGE('',*,*,#249,.T.);
#342=ORIENTED_EDGE('',*,*,#255,.F.);
#343=ORIENTED_EDGE('',*,*,#217,.F.);
#344=ORIENTED_EDGE('',*,*,#255,.T.);
#345=ORIENTED_EDGE('',*,*,#248,.T.);
#346=ORIENTED_EDGE('',*,*,#254,.T.);
#347=ORIENTED_EDGE('',*,*,#218,.T.);
#348=ORIENTED_EDGE('',*,*,#241,.T.);
#349=ORIENTED_EDGE('',*,*,#252,.T.);
#350=ORIENTED_EDGE('',*,*,#236,.T.);
#351=ORIENTED_EDGE('',*,*,#253,.T.);
#352=CYLINDRICAL_SURFACE('',#391,5.5);
#353=CYLINDRICAL_SURFACE('',#396,5.5);
#354=CYLINDRICAL_SURFACE('',#403,4.);
#355=CYLINDRICAL_SURFACE('',#405,4.);
#356=ADVANCED_FACE('',(#39),#352,.F.);
#357=ADVANCED_FACE('',(#40,#15),#22,.F.);
#358=ADVANCED_FACE('',(#41),#353,.F.);
#359=ADVANCED_FACE('',(#42,#16),#23,.T.);
#360=ADVANCED_FACE('',(#43,#17,#18),#24,.T.);
#361=ADVANCED_FACE('',(#44),#25,.T.);
#362=ADVANCED_FACE('',(#45),#354,.F.);
#363=ADVANCED_FACE('',(#46),#355,.F.);
#364=ADVANCED_FACE('',(#47),#26,.F.);
#365=ADVANCED_FACE('',(#48),#27,.F.);
#366=ADVANCED_FACE('',(#49),#28,.T.);
#367=ADVANCED_FACE('',(#50,#19,#20),#29,.F.);
#368=ADVANCED_FACE('',(#51),#30,.T.);
#369=ADVANCED_FACE('',(#52),#31,.T.);
#370=ADVANCED_FACE('',(#53),#32,.F.);
#371=ADVANCED_FACE('',(#54),#33,.T.);
#372=ADVANCED_FACE('',(#55),#34,.F.);
#373=ADVANCED_FACE('',(#56),#35,.F.);
#374=ADVANCED_FACE('',(#57),#36,.T.);
#375=ADVANCED_FACE('',(#58),#37,.T.);
#376=ADVANCED_FACE('',(#59,#21),#38,.T.);
#377=CLOSED_SHELL('',(#356,#357,#358,#359,#360,#361,#362,#363,#364,#365,
#366,#367,#368,#369,#370,#371,#372,#373,#374,#375,#376));
#378=DERIVED_UNIT_ELEMENT(#380,1.);
#379=DERIVED_UNIT_ELEMENT(#627,-3.);
#380=(
MASS_UNIT()
NAMED_UNIT(*)
SI_UNIT(.KILO.,.GRAM.)
);
#381=DERIVED_UNIT((#378,#379));
#382=MEASURE_REPRESENTATION_ITEM('density measure',
POSITIVE_RATIO_MEASURE(7850.),#381);
#383=PROPERTY_DEFINITION_REPRESENTATION(#388,#385);
#384=PROPERTY_DEFINITION_REPRESENTATION(#389,#386);
#385=REPRESENTATION('material name',(#387),#624);
#386=REPRESENTATION('density',(#382),#624);
#387=DESCRIPTIVE_REPRESENTATION_ITEM('Steel','Steel');
#388=PROPERTY_DEFINITION('material property','material name',#634);
#389=PROPERTY_DEFINITION('material property','density of part',#634);
#390=AXIS2_PLACEMENT_3D('',#520,#420,#421);
#391=AXIS2_PLACEMENT_3D('',#521,#422,#423);
#392=AXIS2_PLACEMENT_3D('',#523,#424,#425);
#393=AXIS2_PLACEMENT_3D('',#526,#427,#428);
#394=AXIS2_PLACEMENT_3D('',#527,#429,#430);
#395=AXIS2_PLACEMENT_3D('',#529,#431,#432);
#396=AXIS2_PLACEMENT_3D('',#530,#433,#434);
#397=AXIS2_PLACEMENT_3D('',#532,#435,#436);
#398=AXIS2_PLACEMENT_3D('',#535,#438,#439);
#399=AXIS2_PLACEMENT_3D('',#536,#440,#441);
#400=AXIS2_PLACEMENT_3D('',#538,#442,#443);
#401=AXIS2_PLACEMENT_3D('',#539,#444,#445);
#402=AXIS2_PLACEMENT_3D('',#548,#450,#451);
#403=AXIS2_PLACEMENT_3D('',#557,#456,#457);
#404=AXIS2_PLACEMENT_3D('',#559,#458,#459);
#405=AXIS2_PLACEMENT_3D('',#561,#461,#462);
#406=AXIS2_PLACEMENT_3D('',#563,#463,#464);
#407=AXIS2_PLACEMENT_3D('',#565,#466,#467);
#408=AXIS2_PLACEMENT_3D('',#574,#472,#473);
#409=AXIS2_PLACEMENT_3D('',#585,#480,#481);
#410=AXIS2_PLACEMENT_3D('',#589,#484,#485);
#411=AXIS2_PLACEMENT_3D('',#598,#491,#492);
#412=AXIS2_PLACEMENT_3D('',#600,#494,#495);
#413=AXIS2_PLACEMENT_3D('',#609,#500,#501);
#414=AXIS2_PLACEMENT_3D('',#612,#504,#505);
#415=AXIS2_PLACEMENT_3D('',#613,#506,#507);
#416=AXIS2_PLACEMENT_3D('',#615,#509,#510);
#417=AXIS2_PLACEMENT_3D('',#617,#512,#513);
#418=AXIS2_PLACEMENT_3D('',#619,#515,#516);
#419=AXIS2_PLACEMENT_3D('',#621,#518,#519);
#420=DIRECTION('axis',(0.,0.,1.));
#421=DIRECTION('refdir',(1.,0.,0.));
#422=DIRECTION('center_axis',(0.,-1.,0.));
#423=DIRECTION('ref_axis',(-1.,0.,0.));
#424=DIRECTION('center_axis',(0.,1.,0.));
#425=DIRECTION('ref_axis',(-1.,0.,0.));
#426=DIRECTION('',(0.,1.,0.));
#427=DIRECTION('center_axis',(0.,-1.,0.));
#428=DIRECTION('ref_axis',(-1.,0.,0.));
#429=DIRECTION('center_axis',(0.,1.,0.));
#430=DIRECTION('ref_axis',(-1.,0.,0.));
#431=DIRECTION('center_axis',(0.,-1.,0.));
#432=DIRECTION('ref_axis',(1.,0.,0.));
#433=DIRECTION('center_axis',(0.,1.,0.));
#434=DIRECTION('ref_axis',(1.,0.,0.));
#435=DIRECTION('center_axis',(0.,1.,0.));
#436=DIRECTION('ref_axis',(1.,0.,0.));
#437=DIRECTION('',(0.,1.,0.));
#438=DIRECTION('center_axis',(0.,1.,0.));
#439=DIRECTION('ref_axis',(1.,0.,0.));
#440=DIRECTION('center_axis',(0.,-1.,0.));
#441=DIRECTION('ref_axis',(1.,0.,0.));
#442=DIRECTION('center_axis',(0.,-1.,0.));
#443=DIRECTION('ref_axis',(-1.,0.,0.));
#444=DIRECTION('center_axis',(0.,-1.,0.));
#445=DIRECTION('ref_axis',(1.,0.,0.));
#446=DIRECTION('',(-1.,0.,0.));
#447=DIRECTION('',(0.,0.,1.));
#448=DIRECTION('',(1.,0.,0.));
#449=DIRECTION('',(0.,0.,1.));
#450=DIRECTION('center_axis',(0.,0.,1.));
#451=DIRECTION('ref_axis',(-1.,0.,0.));
#452=DIRECTION('',(0.,1.,0.));
#453=DIRECTION('',(-1.,0.,0.));
#454=DIRECTION('',(0.,-1.,0.));
#455=DIRECTION('',(1.,0.,0.));
#456=DIRECTION('center_axis',(0.,1.,0.));
#457=DIRECTION('ref_axis',(1.,0.,0.));
#458=DIRECTION('center_axis',(0.,-1.,0.));
#459=DIRECTION('ref_axis',(1.,0.,0.));
#460=DIRECTION('',(0.,-1.,0.));
#461=DIRECTION('center_axis',(0.,-1.,0.));
#462=DIRECTION('ref_axis',(-1.,0.,0.));
#463=DIRECTION('center_axis',(0.,-1.,0.));
#464=DIRECTION('ref_axis',(-1.,0.,0.));
#465=DIRECTION('',(0.,-1.,0.));
#466=DIRECTION('center_axis',(0.,0.,-1.));
#467=DIRECTION('ref_axis',(-1.,0.,0.));
#468=DIRECTION('',(1.,0.,0.));
#469=DIRECTION('',(0.,1.,0.));
#470=DIRECTION('',(-1.,0.,0.));
#471=DIRECTION('',(0.,-1.,0.));
#472=DIRECTION('center_axis',(0.,1.,0.));
#473=DIRECTION('ref_axis',(-1.,0.,0.));
#474=DIRECTION('',(0.,0.,1.));
#475=DIRECTION('',(1.,0.,0.));
#476=DIRECTION('',(0.,0.,-1.));
#477=DIRECTION('',(0.,0.,-1.));
#478=DIRECTION('',(1.,0.,0.));
#479=DIRECTION('',(0.,0.,-1.));
#480=DIRECTION('center_axis',(-1.,0.,0.));
#481=DIRECTION('ref_axis',(0.,-1.,0.));
#482=DIRECTION('',(0.,0.,-1.));
#483=DIRECTION('',(0.,-1.,0.));
#484=DIRECTION('center_axis',(0.,-1.,0.));
#485=DIRECTION('ref_axis',(1.,0.,0.));
#486=DIRECTION('',(0.,0.,-1.));
#487=DIRECTION('',(-1.,0.,0.));
#488=DIRECTION('',(0.,0.,1.));
#489=DIRECTION('',(0.,0.,1.));
#490=DIRECTION('',(-1.,0.,0.));
#491=DIRECTION('center_axis',(1.,0.,0.));
#492=DIRECTION('ref_axis',(0.,1.,0.));
#493=DIRECTION('',(0.,1.,0.));
#494=DIRECTION('center_axis',(0.,1.,0.));
#495=DIRECTION('ref_axis',(-1.,0.,0.));
#496=DIRECTION('',(-1.,0.,0.));
#497=DIRECTION('',(0.,0.,1.));
#498=DIRECTION('',(-1.,0.,0.));
#499=DIRECTION('',(0.,0.,1.));
#500=DIRECTION('center_axis',(0.,0.,1.));
#501=DIRECTION('ref_axis',(1.,0.,0.));
#502=DIRECTION('',(0.,1.,0.));
#503=DIRECTION('',(0.,-1.,0.));
#504=DIRECTION('center_axis',(0.,0.,1.));
#505=DIRECTION('ref_axis',(1.,0.,0.));
#506=DIRECTION('center_axis',(-1.,0.,0.));
#507=DIRECTION('ref_axis',(0.,-1.,0.));
#508=DIRECTION('',(0.,1.,0.));
#509=DIRECTION('center_axis',(1.,0.,0.));
#510=DIRECTION('ref_axis',(0.,1.,0.));
#511=DIRECTION('',(0.,-1.,0.));
#512=DIRECTION('center_axis',(-1.,0.,0.));
#513=DIRECTION('ref_axis',(0.,-1.,0.));
#514=DIRECTION('',(0.,-1.,0.));
#515=DIRECTION('center_axis',(1.,0.,0.));
#516=DIRECTION('ref_axis',(0.,1.,0.));
#517=DIRECTION('',(0.,1.,0.));
#518=DIRECTION('center_axis',(0.,0.,1.));
#519=DIRECTION('ref_axis',(1.,0.,0.));
#520=CARTESIAN_POINT('',(0.,0.,0.));
#521=CARTESIAN_POINT('Origin',(79.0000011771917,-62.,62.000000923872));
#522=CARTESIAN_POINT('',(84.5000011771917,-62.,62.000000923872));
#523=CARTESIAN_POINT('Origin',(79.0000011771917,-62.,62.000000923872));
#524=CARTESIAN_POINT('',(84.5000011771917,-59.,62.000000923872));
#525=CARTESIAN_POINT('',(84.5000011771917,-62.,62.000000923872));
#526=CARTESIAN_POINT('Origin',(79.0000011771917,-59.,62.000000923872));
#527=CARTESIAN_POINT('Origin',(79.0000011771917,-59.,62.000000923872));
#528=CARTESIAN_POINT('',(75.0000011771917,-59.,62.0000009685755));
#529=CARTESIAN_POINT('Origin',(79.0000011771917,-59.,62.0000009685755));
#530=CARTESIAN_POINT('Origin',(-79.0000011771917,-62.,62.000000923872));
#531=CARTESIAN_POINT('',(-84.5000011771917,-62.,62.000000923872));
#532=CARTESIAN_POINT('Origin',(-79.0000011771917,-62.,62.000000923872));
#533=CARTESIAN_POINT('',(-84.5000011771917,-59.,62.000000923872));
#534=CARTESIAN_POINT('',(-84.5000011771917,-62.,62.000000923872));
#535=CARTESIAN_POINT('Origin',(-79.0000011771917,-59.,62.000000923872));
#536=CARTESIAN_POINT('Origin',(-79.0000011771917,-59.,62.000000923872));
#537=CARTESIAN_POINT('',(-75.0000011771917,-59.,62.0000009685755));
#538=CARTESIAN_POINT('Origin',(-79.0000011771917,-59.,62.0000009685755));
#539=CARTESIAN_POINT('Origin',(-90.,-62.,0.));
#540=CARTESIAN_POINT('',(90.,-62.,0.));
#541=CARTESIAN_POINT('',(-90.,-62.,0.));
#542=CARTESIAN_POINT('',(90.,-62.,0.));
#543=CARTESIAN_POINT('',(90.,-62.,70.));
#544=CARTESIAN_POINT('',(90.,-62.,0.));
#545=CARTESIAN_POINT('',(-90.,-62.,70.));
#546=CARTESIAN_POINT('',(90.,-62.,70.));
#547=CARTESIAN_POINT('',(-90.,-62.,0.));
#548=CARTESIAN_POINT('Origin',(73.5000006482005,0.,3.));
#549=CARTESIAN_POINT('',(87.,-57.,3.));
#550=CARTESIAN_POINT('',(87.,57.,3.));
#551=CARTESIAN_POINT('',(87.000001296401,50.5000007525086,3.));
#552=CARTESIAN_POINT('',(60.,57.,3.));
#553=CARTESIAN_POINT('',(87.,57.,3.));
#554=CARTESIAN_POINT('',(60.,-57.,3.));
#555=CARTESIAN_POINT('',(60.,57.,3.));
#556=CARTESIAN_POINT('',(60.,-57.,3.));
#557=CARTESIAN_POINT('Origin',(79.0000011771917,-57.,62.0000009685755));
#558=CARTESIAN_POINT('',(75.0000011771917,-57.,62.0000009685755));
#559=CARTESIAN_POINT('Origin',(79.0000011771917,-57.,62.0000009685755));
#560=CARTESIAN_POINT('',(75.0000011771917,-57.,62.0000009685755));
#561=CARTESIAN_POINT('Origin',(-79.0000011771917,-57.,62.0000009685755));
#562=CARTESIAN_POINT('',(-75.0000011771917,-57.,62.0000009685755));
#563=CARTESIAN_POINT('Origin',(-79.0000011771917,-57.,62.0000009685755));
#564=CARTESIAN_POINT('',(-75.0000011771917,-57.,62.0000009685755));
#565=CARTESIAN_POINT('Origin',(-73.5,0.,5.));
#566=CARTESIAN_POINT('',(-87.,57.,5.));
#567=CARTESIAN_POINT('',(-60.,57.,5.));
#568=CARTESIAN_POINT('',(8.25,57.,5.));
#569=CARTESIAN_POINT('',(-87.,-57.,5.));
#570=CARTESIAN_POINT('',(-87.,30.,5.));
#571=CARTESIAN_POINT('',(-60.,-57.,5.));
#572=CARTESIAN_POINT('',(-81.75,-57.,5.));
#573=CARTESIAN_POINT('',(-60.,28.5,5.));
#574=CARTESIAN_POINT('Origin',(90.,57.,0.));
#575=CARTESIAN_POINT('',(-60.,57.,13.));
#576=CARTESIAN_POINT('',(-60.,57.,1.5));
#577=CARTESIAN_POINT('',(60.,57.,13.));
#578=CARTESIAN_POINT('',(45.,57.,13.));
#579=CARTESIAN_POINT('',(60.,57.,1.5));
#580=CARTESIAN_POINT('',(87.,57.,70.));
#581=CARTESIAN_POINT('',(87.,57.,0.));
#582=CARTESIAN_POINT('',(-87.,57.,70.));
#583=CARTESIAN_POINT('',(45.,57.,70.));
#584=CARTESIAN_POINT('',(-87.,57.,0.));
#585=CARTESIAN_POINT('Origin',(-60.,57.,3.));
#586=CARTESIAN_POINT('',(-60.,-57.,13.));
#587=CARTESIAN_POINT('',(-60.,-57.,1.5));
#588=CARTESIAN_POINT('',(-60.,57.,13.));
#589=CARTESIAN_POINT('Origin',(-90.,-57.,0.));
#590=CARTESIAN_POINT('',(-87.,-57.,70.));
#591=CARTESIAN_POINT('',(-87.,-57.,0.));
#592=CARTESIAN_POINT('',(87.,-57.,70.));
#593=CARTESIAN_POINT('',(-45.,-57.,70.));
#594=CARTESIAN_POINT('',(87.,-57.,0.));
#595=CARTESIAN_POINT('',(60.,-57.,13.));
#596=CARTESIAN_POINT('',(60.,-57.,1.5));
#597=CARTESIAN_POINT('',(-45.,-57.,13.));
#598=CARTESIAN_POINT('Origin',(60.,-57.,3.));
#599=CARTESIAN_POINT('',(60.,-57.,13.));
#600=CARTESIAN_POINT('Origin',(90.,60.,0.));
#601=CARTESIAN_POINT('',(90.,60.,0.));
#602=CARTESIAN_POINT('',(-90.,60.,0.));
#603=CARTESIAN_POINT('',(90.,60.,0.));
#604=CARTESIAN_POINT('',(-90.,60.,70.));
#605=CARTESIAN_POINT('',(-90.,60.,0.));
#606=CARTESIAN_POINT('',(90.,60.,70.));
#607=CARTESIAN_POINT('',(90.,60.,70.));
#608=CARTESIAN_POINT('',(90.,60.,0.));
#609=CARTESIAN_POINT('Origin',(0.,0.,0.));
#610=CARTESIAN_POINT('',(90.,-60.,0.));
#611=CARTESIAN_POINT('',(-90.,60.,0.));
#612=CARTESIAN_POINT('Origin',(0.,4.24683097577372E-7,13.));
#613=CARTESIAN_POINT('Origin',(-87.,60.,0.));
#614=CARTESIAN_POINT('',(-87.,30.,70.));
#615=CARTESIAN_POINT('Origin',(87.,-60.,0.));
#616=CARTESIAN_POINT('',(87.,-30.,70.));
#617=CARTESIAN_POINT('Origin',(-90.,60.,0.));
#618=CARTESIAN_POINT('',(-90.,60.,70.));
#619=CARTESIAN_POINT('Origin',(90.,-60.,0.));
#620=CARTESIAN_POINT('',(90.,-60.,70.));
#621=CARTESIAN_POINT('Origin',(0.,0.,70.));
#622=UNCERTAINTY_MEASURE_WITH_UNIT(LENGTH_MEASURE(0.01),#626,
'DISTANCE_ACCURACY_VALUE',
'Maximum model space distance between geometric entities at asserted c
onnectivities');
#623=UNCERTAINTY_MEASURE_WITH_UNIT(LENGTH_MEASURE(0.01),#626,
'DISTANCE_ACCURACY_VALUE',
'Maximum model space distance between geometric entities at asserted c
onnectivities');
#624=(
GEOMETRIC_REPRESENTATION_CONTEXT(3)
GLOBAL_UNCERTAINTY_ASSIGNED_CONTEXT((#622))
GLOBAL_UNIT_ASSIGNED_CONTEXT((#626,#628,#629))
REPRESENTATION_CONTEXT('','3D')
);
#625=(
GEOMETRIC_REPRESENTATION_CONTEXT(3)
GLOBAL_UNCERTAINTY_ASSIGNED_CONTEXT((#623))
GLOBAL_UNIT_ASSIGNED_CONTEXT((#626,#628,#629))
REPRESENTATION_CONTEXT('','3D')
);
#626=(
LENGTH_UNIT()
NAMED_UNIT(*)
SI_UNIT(.MILLI.,.METRE.)
);
#627=(
LENGTH_UNIT()
NAMED_UNIT(*)
SI_UNIT($,.METRE.)
);
#628=(
NAMED_UNIT(*)
PLANE_ANGLE_UNIT()
SI_UNIT($,.RADIAN.)
);
#629=(
NAMED_UNIT(*)
SI_UNIT($,.STERADIAN.)
SOLID_ANGLE_UNIT()
);
#630=SHAPE_DEFINITION_REPRESENTATION(#631,#632);
#631=PRODUCT_DEFINITION_SHAPE('',$,#634);
#632=SHAPE_REPRESENTATION('',(#390),#624);
#633=PRODUCT_DEFINITION_CONTEXT('part definition',#638,'design');
#634=PRODUCT_DEFINITION('2025-07-23-11-50-06-038','EZ-Phoresis_base',#635,
#633);
#635=PRODUCT_DEFINITION_FORMATION('',$,#640);
#636=PRODUCT_RELATED_PRODUCT_CATEGORY('EZ-Phoresis_base',
'EZ-Phoresis_base',(#640));
#637=APPLICATION_PROTOCOL_DEFINITION('international standard',
'automotive_design',2009,#638);
#638=APPLICATION_CONTEXT(
'Core Data for Automotive Mechanical Design Process');
#639=PRODUCT_CONTEXT('part definition',#638,'mechanical');
#640=PRODUCT('2025-07-23-11-50-06-038','EZ-Phoresis_base',$,(#639));
#641=PRESENTATION_STYLE_ASSIGNMENT((#642));
#642=SURFACE_STYLE_USAGE(.BOTH.,#643);
#643=SURFACE_SIDE_STYLE('',(#644));
#644=SURFACE_STYLE_FILL_AREA(#645);
#645=FILL_AREA_STYLE('Steel - Satin',(#646));
#646=FILL_AREA_STYLE_COLOUR('Steel - Satin',#647);
#647=COLOUR_RGB('Steel - Satin',0.627450980392157,0.627450980392157,0.627450980392157);
ENDSEC;
END-ISO-10303-21;
