ISO-10303-21;
HEADER;
/* Generated by software containing ST-Developer
 * from STEP Tools, Inc. (www.steptools.com) 
 */

FILE_DESCRIPTION(
/* description */ (''),
/* implementation_level */ '2;1');

FILE_NAME(
/* name */ 'EZ-Phoresis_lid.step',
/* time_stamp */ '2026-09-10T19:17:57+03:00',
/* author */ (''),
/* organization */ (''),
/* preprocessor_version */ 'ST-DEVELOPER v20.2',
/* originating_system */ 'Autodesk Translation Framework v15.15.0.0',
/* authorisation */ '');

FILE_SCHEMA (('AUTOMOTIVE_DESIGN { 1 0 10303 214 3 1 1 }'));
ENDSEC;

DATA;
#10=MECHANICAL_DESIGN_GEOMETRIC_PRESENTATION_REPRESENTATION('',(#13),#1201);
#11=SHAPE_REPRESENTATION_RELATIONSHIP('SRR','None',#1208,#12);
#12=ADVANCED_BREP_SHAPE_REPRESENTATION('',(#14),#1200);
#13=STYLED_ITEM('',(#1217),#14);
#14=MANIFOLD_SOLID_BREP('Lid',#757);
#15=CYLINDRICAL_SURFACE('',#781,5.50000000000001);
#16=CYLINDRICAL_SURFACE('',#783,5.50000000000001);
#17=FACE_BOUND('',#71,.T.);
#18=FACE_BOUND('',#74,.T.);
#19=FACE_BOUND('',#77,.T.);
#20=FACE_BOUND('',#78,.T.);
#21=FACE_BOUND('',#79,.T.);
#22=FACE_BOUND('',#80,.T.);
#23=FACE_BOUND('',#97,.T.);
#24=FACE_BOUND('',#102,.T.);
#25=FACE_BOUND('',#113,.T.);
#26=FACE_BOUND('',#114,.T.);
#27=FACE_BOUND('',#115,.T.);
#28=FACE_BOUND('',#116,.T.);
#29=CIRCLE('',#773,5.50000000000001);
#30=CIRCLE('',#776,5.50000000000001);
#31=CIRCLE('',#782,5.50000000000001);
#32=CIRCLE('',#784,5.50000000000001);
#33=FACE_OUTER_BOUND('',#69,.T.);
#34=FACE_OUTER_BOUND('',#70,.T.);
#35=FACE_OUTER_BOUND('',#72,.T.);
#36=FACE_OUTER_BOUND('',#73,.T.);
#37=FACE_OUTER_BOUND('',#75,.T.);
#38=FACE_OUTER_BOUND('',#76,.T.);
#39=FACE_OUTER_BOUND('',#81,.T.);
#40=FACE_OUTER_BOUND('',#82,.T.);
#41=FACE_OUTER_BOUND('',#83,.T.);
#42=FACE_OUTER_BOUND('',#84,.T.);
#43=FACE_OUTER_BOUND('',#85,.T.);
#44=FACE_OUTER_BOUND('',#86,.T.);
#45=FACE_OUTER_BOUND('',#87,.T.);
#46=FACE_OUTER_BOUND('',#88,.T.);
#47=FACE_OUTER_BOUND('',#89,.T.);
#48=FACE_OUTER_BOUND('',#90,.T.);
#49=FACE_OUTER_BOUND('',#91,.T.);
#50=FACE_OUTER_BOUND('',#92,.T.);
#51=FACE_OUTER_BOUND('',#93,.T.);
#52=FACE_OUTER_BOUND('',#94,.T.);
#53=FACE_OUTER_BOUND('',#95,.T.);
#54=FACE_OUTER_BOUND('',#96,.T.);
#55=FACE_OUTER_BOUND('',#98,.T.);
#56=FACE_OUTER_BOUND('',#99,.T.);
#57=FACE_OUTER_BOUND('',#100,.T.);
#58=FACE_OUTER_BOUND('',#101,.T.);
#59=FACE_OUTER_BOUND('',#103,.T.);
#60=FACE_OUTER_BOUND('',#104,.T.);
#61=FACE_OUTER_BOUND('',#105,.T.);
#62=FACE_OUTER_BOUND('',#106,.T.);
#63=FACE_OUTER_BOUND('',#107,.T.);
#64=FACE_OUTER_BOUND('',#108,.T.);
#65=FACE_OUTER_BOUND('',#109,.T.);
#66=FACE_OUTER_BOUND('',#110,.T.);
#67=FACE_OUTER_BOUND('',#111,.T.);
#68=FACE_OUTER_BOUND('',#112,.T.);
#69=EDGE_LOOP('',(#483,#484,#485,#486));
#70=EDGE_LOOP('',(#487,#488,#489,#490));
#71=EDGE_LOOP('',(#491));
#72=EDGE_LOOP('',(#492,#493,#494,#495));
#73=EDGE_LOOP('',(#496,#497,#498,#499));
#74=EDGE_LOOP('',(#500));
#75=EDGE_LOOP('',(#501,#502,#503,#504));
#76=EDGE_LOOP('',(#505,#506,#507,#508,#509,#510,#511,#512));
#77=EDGE_LOOP('',(#513,#514,#515,#516));
#78=EDGE_LOOP('',(#517,#518,#519,#520));
#79=EDGE_LOOP('',(#521,#522,#523,#524));
#80=EDGE_LOOP('',(#525,#526,#527,#528));
#81=EDGE_LOOP('',(#529,#530,#531,#532));
#82=EDGE_LOOP('',(#533,#534,#535,#536));
#83=EDGE_LOOP('',(#537,#538,#539,#540));
#84=EDGE_LOOP('',(#541,#542,#543,#544));
#85=EDGE_LOOP('',(#545,#546,#547,#548));
#86=EDGE_LOOP('',(#549,#550,#551,#552));
#87=EDGE_LOOP('',(#553,#554,#555,#556));
#88=EDGE_LOOP('',(#557,#558,#559,#560));
#89=EDGE_LOOP('',(#561,#562,#563,#564));
#90=EDGE_LOOP('',(#565,#566,#567,#568));
#91=EDGE_LOOP('',(#569,#570,#571,#572));
#92=EDGE_LOOP('',(#573,#574,#575,#576));
#93=EDGE_LOOP('',(#577,#578,#579,#580));
#94=EDGE_LOOP('',(#581,#582,#583,#584));
#95=EDGE_LOOP('',(#585,#586,#587,#588));
#96=EDGE_LOOP('',(#589,#590,#591,#592));
#97=EDGE_LOOP('',(#593));
#98=EDGE_LOOP('',(#594,#595,#596,#597));
#99=EDGE_LOOP('',(#598,#599,#600,#601,#602,#603,#604,#605));
#100=EDGE_LOOP('',(#606,#607,#608,#609));
#101=EDGE_LOOP('',(#610,#611,#612,#613));
#102=EDGE_LOOP('',(#614));
#103=EDGE_LOOP('',(#615,#616,#617,#618,#619,#620,#621,#622,#623,#624,#625,
#626,#627,#628,#629,#630));
#104=EDGE_LOOP('',(#631,#632,#633,#634));
#105=EDGE_LOOP('',(#635,#636,#637,#638));
#106=EDGE_LOOP('',(#639,#640,#641,#642));
#107=EDGE_LOOP('',(#643,#644,#645,#646));
#108=EDGE_LOOP('',(#647,#648,#649,#650));
#109=EDGE_LOOP('',(#651,#652,#653,#654));
#110=EDGE_LOOP('',(#655,#656,#657,#658));
#111=EDGE_LOOP('',(#659,#660,#661,#662));
#112=EDGE_LOOP('',(#663,#664,#665,#666,#667,#668,#669,#670));
#113=EDGE_LOOP('',(#671,#672,#673,#674));
#114=EDGE_LOOP('',(#675,#676,#677,#678));
#115=EDGE_LOOP('',(#679,#680,#681,#682));
#116=EDGE_LOOP('',(#683,#684,#685,#686));
#117=LINE('',#995,#215);
#118=LINE('',#997,#216);
#119=LINE('',#999,#217);
#120=LINE('',#1000,#218);
#121=LINE('',#1003,#219);
#122=LINE('',#1005,#220);
#123=LINE('',#1006,#221);
#124=LINE('',#1012,#222);
#125=LINE('',#1014,#223);
#126=LINE('',#1016,#224);
#127=LINE('',#1017,#225);
#128=LINE('',#1020,#226);
#129=LINE('',#1022,#227);
#130=LINE('',#1023,#228);
#131=LINE('',#1027,#229);
#132=LINE('',#1028,#230);
#133=LINE('',#1031,#231);
#134=LINE('',#1033,#232);
#135=LINE('',#1034,#233);
#136=LINE('',#1037,#234);
#137=LINE('',#1039,#235);
#138=LINE('',#1041,#236);
#139=LINE('',#1042,#237);
#140=LINE('',#1045,#238);
#141=LINE('',#1047,#239);
#142=LINE('',#1049,#240);
#143=LINE('',#1050,#241);
#144=LINE('',#1053,#242);
#145=LINE('',#1055,#243);
#146=LINE('',#1057,#244);
#147=LINE('',#1058,#245);
#148=LINE('',#1061,#246);
#149=LINE('',#1063,#247);
#150=LINE('',#1065,#248);
#151=LINE('',#1066,#249);
#152=LINE('',#1069,#250);
#153=LINE('',#1070,#251);
#154=LINE('',#1073,#252);
#155=LINE('',#1074,#253);
#156=LINE('',#1078,#254);
#157=LINE('',#1082,#255);
#158=LINE('',#1085,#256);
#159=LINE('',#1087,#257);
#160=LINE('',#1088,#258);
#161=LINE('',#1091,#259);
#162=LINE('',#1093,#260);
#163=LINE('',#1094,#261);
#164=LINE('',#1097,#262);
#165=LINE('',#1099,#263);
#166=LINE('',#1100,#264);
#167=LINE('',#1103,#265);
#168=LINE('',#1104,#266);
#169=LINE('',#1107,#267);
#170=LINE('',#1108,#268);
#171=LINE('',#1111,#269);
#172=LINE('',#1112,#270);
#173=LINE('',#1115,#271);
#174=LINE('',#1117,#272);
#175=LINE('',#1118,#273);
#176=LINE('',#1121,#274);
#177=LINE('',#1122,#275);
#178=LINE('',#1126,#276);
#179=LINE('',#1128,#277);
#180=LINE('',#1130,#278);
#181=LINE('',#1131,#279);
#182=LINE('',#1134,#280);
#183=LINE('',#1136,#281);
#184=LINE('',#1137,#282);
#185=LINE('',#1140,#283);
#186=LINE('',#1142,#284);
#187=LINE('',#1143,#285);
#188=LINE('',#1146,#286);
#189=LINE('',#1148,#287);
#190=LINE('',#1149,#288);
#191=LINE('',#1152,#289);
#192=LINE('',#1154,#290);
#193=LINE('',#1155,#291);
#194=LINE('',#1158,#292);
#195=LINE('',#1159,#293);
#196=LINE('',#1161,#294);
#197=LINE('',#1162,#295);
#198=LINE('',#1165,#296);
#199=LINE('',#1167,#297);
#200=LINE('',#1168,#298);
#201=LINE('',#1170,#299);
#202=LINE('',#1171,#300);
#203=LINE('',#1175,#301);
#204=LINE('',#1176,#302);
#205=LINE('',#1178,#303);
#206=LINE('',#1181,#304);
#207=LINE('',#1182,#305);
#208=LINE('',#1184,#306);
#209=LINE('',#1187,#307);
#210=LINE('',#1188,#308);
#211=LINE('',#1190,#309);
#212=LINE('',#1193,#310);
#213=LINE('',#1194,#311);
#214=LINE('',#1196,#312);
#215=VECTOR('',#815,10.);
#216=VECTOR('',#816,10.);
#217=VECTOR('',#817,10.);
#218=VECTOR('',#818,10.);
#219=VECTOR('',#821,10.);
#220=VECTOR('',#822,10.);
#221=VECTOR('',#823,10.);
#222=VECTOR('',#828,10.);
#223=VECTOR('',#829,10.);
#224=VECTOR('',#830,10.);
#225=VECTOR('',#831,10.);
#226=VECTOR('',#834,10.);
#227=VECTOR('',#835,10.);
#228=VECTOR('',#836,10.);
#229=VECTOR('',#841,10.);
#230=VECTOR('',#842,10.);
#231=VECTOR('',#845,10.);
#232=VECTOR('',#846,10.);
#233=VECTOR('',#847,10.);
#234=VECTOR('',#848,10.);
#235=VECTOR('',#849,10.);
#236=VECTOR('',#850,10.);
#237=VECTOR('',#851,10.);
#238=VECTOR('',#852,10.);
#239=VECTOR('',#853,10.);
#240=VECTOR('',#854,10.);
#241=VECTOR('',#855,10.);
#242=VECTOR('',#856,10.);
#243=VECTOR('',#857,10.);
#244=VECTOR('',#858,10.);
#245=VECTOR('',#859,10.);
#246=VECTOR('',#860,10.);
#247=VECTOR('',#861,10.);
#248=VECTOR('',#862,10.);
#249=VECTOR('',#863,10.);
#250=VECTOR('',#866,10.);
#251=VECTOR('',#867,10.);
#252=VECTOR('',#870,10.);
#253=VECTOR('',#871,10.);
#254=VECTOR('',#876,5.50000000000001);
#255=VECTOR('',#881,5.50000000000001);
#256=VECTOR('',#884,10.);
#257=VECTOR('',#885,10.);
#258=VECTOR('',#886,10.);
#259=VECTOR('',#889,10.);
#260=VECTOR('',#890,10.);
#261=VECTOR('',#891,10.);
#262=VECTOR('',#894,10.);
#263=VECTOR('',#895,10.);
#264=VECTOR('',#896,10.);
#265=VECTOR('',#899,10.);
#266=VECTOR('',#900,10.);
#267=VECTOR('',#903,10.);
#268=VECTOR('',#904,10.);
#269=VECTOR('',#907,10.);
#270=VECTOR('',#908,10.);
#271=VECTOR('',#911,10.);
#272=VECTOR('',#912,10.);
#273=VECTOR('',#913,10.);
#274=VECTOR('',#916,10.);
#275=VECTOR('',#917,10.);
#276=VECTOR('',#920,10.);
#277=VECTOR('',#921,10.);
#278=VECTOR('',#922,10.);
#279=VECTOR('',#923,10.);
#280=VECTOR('',#926,10.);
#281=VECTOR('',#927,10.);
#282=VECTOR('',#928,10.);
#283=VECTOR('',#931,10.);
#284=VECTOR('',#932,10.);
#285=VECTOR('',#933,10.);
#286=VECTOR('',#936,10.);
#287=VECTOR('',#937,10.);
#288=VECTOR('',#938,10.);
#289=VECTOR('',#941,10.);
#290=VECTOR('',#942,10.);
#291=VECTOR('',#943,10.);
#292=VECTOR('',#946,10.);
#293=VECTOR('',#947,10.);
#294=VECTOR('',#948,10.);
#295=VECTOR('',#949,10.);
#296=VECTOR('',#952,10.);
#297=VECTOR('',#953,10.);
#298=VECTOR('',#954,10.);
#299=VECTOR('',#957,10.);
#300=VECTOR('',#958,10.);
#301=VECTOR('',#963,10.);
#302=VECTOR('',#964,10.);
#303=VECTOR('',#967,10.);
#304=VECTOR('',#970,10.);
#305=VECTOR('',#971,10.);
#306=VECTOR('',#974,10.);
#307=VECTOR('',#977,10.);
#308=VECTOR('',#978,10.);
#309=VECTOR('',#981,10.);
#310=VECTOR('',#984,10.);
#311=VECTOR('',#985,10.);
#312=VECTOR('',#988,10.);
#313=VERTEX_POINT('',#993);
#314=VERTEX_POINT('',#994);
#315=VERTEX_POINT('',#996);
#316=VERTEX_POINT('',#998);
#317=VERTEX_POINT('',#1002);
#318=VERTEX_POINT('',#1004);
#319=VERTEX_POINT('',#1007);
#320=VERTEX_POINT('',#1010);
#321=VERTEX_POINT('',#1011);
#322=VERTEX_POINT('',#1013);
#323=VERTEX_POINT('',#1015);
#324=VERTEX_POINT('',#1019);
#325=VERTEX_POINT('',#1021);
#326=VERTEX_POINT('',#1024);
#327=VERTEX_POINT('',#1030);
#328=VERTEX_POINT('',#1032);
#329=VERTEX_POINT('',#1035);
#330=VERTEX_POINT('',#1036);
#331=VERTEX_POINT('',#1038);
#332=VERTEX_POINT('',#1040);
#333=VERTEX_POINT('',#1043);
#334=VERTEX_POINT('',#1044);
#335=VERTEX_POINT('',#1046);
#336=VERTEX_POINT('',#1048);
#337=VERTEX_POINT('',#1051);
#338=VERTEX_POINT('',#1052);
#339=VERTEX_POINT('',#1054);
#340=VERTEX_POINT('',#1056);
#341=VERTEX_POINT('',#1059);
#342=VERTEX_POINT('',#1060);
#343=VERTEX_POINT('',#1062);
#344=VERTEX_POINT('',#1064);
#345=VERTEX_POINT('',#1068);
#346=VERTEX_POINT('',#1072);
#347=VERTEX_POINT('',#1076);
#348=VERTEX_POINT('',#1080);
#349=VERTEX_POINT('',#1084);
#350=VERTEX_POINT('',#1086);
#351=VERTEX_POINT('',#1090);
#352=VERTEX_POINT('',#1092);
#353=VERTEX_POINT('',#1096);
#354=VERTEX_POINT('',#1098);
#355=VERTEX_POINT('',#1102);
#356=VERTEX_POINT('',#1106);
#357=VERTEX_POINT('',#1110);
#358=VERTEX_POINT('',#1114);
#359=VERTEX_POINT('',#1116);
#360=VERTEX_POINT('',#1120);
#361=VERTEX_POINT('',#1124);
#362=VERTEX_POINT('',#1125);
#363=VERTEX_POINT('',#1127);
#364=VERTEX_POINT('',#1129);
#365=VERTEX_POINT('',#1133);
#366=VERTEX_POINT('',#1135);
#367=VERTEX_POINT('',#1139);
#368=VERTEX_POINT('',#1141);
#369=VERTEX_POINT('',#1145);
#370=VERTEX_POINT('',#1147);
#371=VERTEX_POINT('',#1151);
#372=VERTEX_POINT('',#1153);
#373=VERTEX_POINT('',#1157);
#374=VERTEX_POINT('',#1160);
#375=VERTEX_POINT('',#1164);
#376=VERTEX_POINT('',#1166);
#377=VERTEX_POINT('',#1174);
#378=VERTEX_POINT('',#1180);
#379=VERTEX_POINT('',#1186);
#380=VERTEX_POINT('',#1192);
#381=EDGE_CURVE('',#313,#314,#117,.T.);
#382=EDGE_CURVE('',#313,#315,#118,.T.);
#383=EDGE_CURVE('',#315,#316,#119,.T.);
#384=EDGE_CURVE('',#314,#316,#120,.T.);
#385=EDGE_CURVE('',#317,#313,#121,.T.);
#386=EDGE_CURVE('',#317,#318,#122,.T.);
#387=EDGE_CURVE('',#318,#315,#123,.T.);
#388=EDGE_CURVE('',#319,#319,#29,.T.);
#389=EDGE_CURVE('',#320,#321,#124,.T.);
#390=EDGE_CURVE('',#322,#320,#125,.T.);
#391=EDGE_CURVE('',#322,#323,#126,.T.);
#392=EDGE_CURVE('',#321,#323,#127,.T.);
#393=EDGE_CURVE('',#321,#324,#128,.T.);
#394=EDGE_CURVE('',#323,#325,#129,.T.);
#395=EDGE_CURVE('',#324,#325,#130,.T.);
#396=EDGE_CURVE('',#326,#326,#30,.T.);
#397=EDGE_CURVE('',#322,#316,#131,.T.);
#398=EDGE_CURVE('',#320,#314,#132,.T.);
#399=EDGE_CURVE('',#327,#318,#133,.T.);
#400=EDGE_CURVE('',#327,#328,#134,.T.);
#401=EDGE_CURVE('',#325,#328,#135,.T.);
#402=EDGE_CURVE('',#329,#330,#136,.T.);
#403=EDGE_CURVE('',#330,#331,#137,.T.);
#404=EDGE_CURVE('',#331,#332,#138,.T.);
#405=EDGE_CURVE('',#332,#329,#139,.T.);
#406=EDGE_CURVE('',#333,#334,#140,.T.);
#407=EDGE_CURVE('',#334,#335,#141,.T.);
#408=EDGE_CURVE('',#335,#336,#142,.T.);
#409=EDGE_CURVE('',#336,#333,#143,.T.);
#410=EDGE_CURVE('',#337,#338,#144,.T.);
#411=EDGE_CURVE('',#338,#339,#145,.T.);
#412=EDGE_CURVE('',#339,#340,#146,.T.);
#413=EDGE_CURVE('',#340,#337,#147,.T.);
#414=EDGE_CURVE('',#341,#342,#148,.T.);
#415=EDGE_CURVE('',#342,#343,#149,.T.);
#416=EDGE_CURVE('',#343,#344,#150,.T.);
#417=EDGE_CURVE('',#344,#341,#151,.T.);
#418=EDGE_CURVE('',#345,#317,#152,.T.);
#419=EDGE_CURVE('',#327,#345,#153,.T.);
#420=EDGE_CURVE('',#328,#346,#154,.T.);
#421=EDGE_CURVE('',#324,#346,#155,.T.);
#422=EDGE_CURVE('',#347,#347,#31,.T.);
#423=EDGE_CURVE('',#347,#319,#156,.T.);
#424=EDGE_CURVE('',#348,#348,#32,.T.);
#425=EDGE_CURVE('',#348,#326,#157,.T.);
#426=EDGE_CURVE('',#349,#341,#158,.T.);
#427=EDGE_CURVE('',#349,#350,#159,.T.);
#428=EDGE_CURVE('',#350,#342,#160,.T.);
#429=EDGE_CURVE('',#351,#331,#161,.T.);
#430=EDGE_CURVE('',#351,#352,#162,.T.);
#431=EDGE_CURVE('',#352,#332,#163,.T.);
#432=EDGE_CURVE('',#353,#335,#164,.T.);
#433=EDGE_CURVE('',#353,#354,#165,.T.);
#434=EDGE_CURVE('',#354,#336,#166,.T.);
#435=EDGE_CURVE('',#355,#343,#167,.T.);
#436=EDGE_CURVE('',#350,#355,#168,.T.);
#437=EDGE_CURVE('',#356,#329,#169,.T.);
#438=EDGE_CURVE('',#352,#356,#170,.T.);
#439=EDGE_CURVE('',#357,#333,#171,.T.);
#440=EDGE_CURVE('',#354,#357,#172,.T.);
#441=EDGE_CURVE('',#358,#337,#173,.T.);
#442=EDGE_CURVE('',#359,#340,#174,.T.);
#443=EDGE_CURVE('',#359,#358,#175,.T.);
#444=EDGE_CURVE('',#360,#339,#176,.T.);
#445=EDGE_CURVE('',#360,#359,#177,.T.);
#446=EDGE_CURVE('',#361,#362,#178,.T.);
#447=EDGE_CURVE('',#361,#363,#179,.T.);
#448=EDGE_CURVE('',#364,#363,#180,.T.);
#449=EDGE_CURVE('',#362,#364,#181,.T.);
#450=EDGE_CURVE('',#365,#362,#182,.T.);
#451=EDGE_CURVE('',#366,#364,#183,.T.);
#452=EDGE_CURVE('',#365,#366,#184,.T.);
#453=EDGE_CURVE('',#367,#365,#185,.T.);
#454=EDGE_CURVE('',#368,#366,#186,.T.);
#455=EDGE_CURVE('',#367,#368,#187,.T.);
#456=EDGE_CURVE('',#367,#369,#188,.T.);
#457=EDGE_CURVE('',#370,#368,#189,.T.);
#458=EDGE_CURVE('',#369,#370,#190,.T.);
#459=EDGE_CURVE('',#369,#371,#191,.T.);
#460=EDGE_CURVE('',#372,#370,#192,.T.);
#461=EDGE_CURVE('',#371,#372,#193,.T.);
#462=EDGE_CURVE('',#373,#371,#194,.T.);
#463=EDGE_CURVE('',#346,#372,#195,.T.);
#464=EDGE_CURVE('',#374,#345,#196,.T.);
#465=EDGE_CURVE('',#373,#374,#197,.T.);
#466=EDGE_CURVE('',#375,#373,#198,.T.);
#467=EDGE_CURVE('',#376,#374,#199,.T.);
#468=EDGE_CURVE('',#375,#376,#200,.T.);
#469=EDGE_CURVE('',#375,#361,#201,.T.);
#470=EDGE_CURVE('',#363,#376,#202,.T.);
#471=EDGE_CURVE('',#360,#377,#203,.T.);
#472=EDGE_CURVE('',#377,#338,#204,.T.);
#473=EDGE_CURVE('',#377,#358,#205,.T.);
#474=EDGE_CURVE('',#353,#378,#206,.T.);
#475=EDGE_CURVE('',#378,#334,#207,.T.);
#476=EDGE_CURVE('',#378,#357,#208,.T.);
#477=EDGE_CURVE('',#351,#379,#209,.T.);
#478=EDGE_CURVE('',#379,#330,#210,.T.);
#479=EDGE_CURVE('',#379,#356,#211,.T.);
#480=EDGE_CURVE('',#349,#380,#212,.T.);
#481=EDGE_CURVE('',#380,#344,#213,.T.);
#482=EDGE_CURVE('',#380,#355,#214,.T.);
#483=ORIENTED_EDGE('',*,*,#381,.F.);
#484=ORIENTED_EDGE('',*,*,#382,.T.);
#485=ORIENTED_EDGE('',*,*,#383,.T.);
#486=ORIENTED_EDGE('',*,*,#384,.F.);
#487=ORIENTED_EDGE('',*,*,#385,.F.);
#488=ORIENTED_EDGE('',*,*,#386,.T.);
#489=ORIENTED_EDGE('',*,*,#387,.T.);
#490=ORIENTED_EDGE('',*,*,#382,.F.);
#491=ORIENTED_EDGE('',*,*,#388,.F.);
#492=ORIENTED_EDGE('',*,*,#389,.F.);
#493=ORIENTED_EDGE('',*,*,#390,.F.);
#494=ORIENTED_EDGE('',*,*,#391,.T.);
#495=ORIENTED_EDGE('',*,*,#392,.F.);
#496=ORIENTED_EDGE('',*,*,#393,.F.);
#497=ORIENTED_EDGE('',*,*,#392,.T.);
#498=ORIENTED_EDGE('',*,*,#394,.T.);
#499=ORIENTED_EDGE('',*,*,#395,.F.);
#500=ORIENTED_EDGE('',*,*,#396,.F.);
#501=ORIENTED_EDGE('',*,*,#384,.T.);
#502=ORIENTED_EDGE('',*,*,#397,.F.);
#503=ORIENTED_EDGE('',*,*,#390,.T.);
#504=ORIENTED_EDGE('',*,*,#398,.T.);
#505=ORIENTED_EDGE('',*,*,#397,.T.);
#506=ORIENTED_EDGE('',*,*,#383,.F.);
#507=ORIENTED_EDGE('',*,*,#387,.F.);
#508=ORIENTED_EDGE('',*,*,#399,.F.);
#509=ORIENTED_EDGE('',*,*,#400,.T.);
#510=ORIENTED_EDGE('',*,*,#401,.F.);
#511=ORIENTED_EDGE('',*,*,#394,.F.);
#512=ORIENTED_EDGE('',*,*,#391,.F.);
#513=ORIENTED_EDGE('',*,*,#402,.T.);
#514=ORIENTED_EDGE('',*,*,#403,.T.);
#515=ORIENTED_EDGE('',*,*,#404,.T.);
#516=ORIENTED_EDGE('',*,*,#405,.T.);
#517=ORIENTED_EDGE('',*,*,#406,.T.);
#518=ORIENTED_EDGE('',*,*,#407,.T.);
#519=ORIENTED_EDGE('',*,*,#408,.T.);
#520=ORIENTED_EDGE('',*,*,#409,.T.);
#521=ORIENTED_EDGE('',*,*,#410,.T.);
#522=ORIENTED_EDGE('',*,*,#411,.T.);
#523=ORIENTED_EDGE('',*,*,#412,.T.);
#524=ORIENTED_EDGE('',*,*,#413,.T.);
#525=ORIENTED_EDGE('',*,*,#414,.T.);
#526=ORIENTED_EDGE('',*,*,#415,.T.);
#527=ORIENTED_EDGE('',*,*,#416,.T.);
#528=ORIENTED_EDGE('',*,*,#417,.T.);
#529=ORIENTED_EDGE('',*,*,#418,.F.);
#530=ORIENTED_EDGE('',*,*,#419,.F.);
#531=ORIENTED_EDGE('',*,*,#399,.T.);
#532=ORIENTED_EDGE('',*,*,#386,.F.);
#533=ORIENTED_EDGE('',*,*,#401,.T.);
#534=ORIENTED_EDGE('',*,*,#420,.T.);
#535=ORIENTED_EDGE('',*,*,#421,.F.);
#536=ORIENTED_EDGE('',*,*,#395,.T.);
#537=ORIENTED_EDGE('',*,*,#422,.F.);
#538=ORIENTED_EDGE('',*,*,#423,.T.);
#539=ORIENTED_EDGE('',*,*,#388,.T.);
#540=ORIENTED_EDGE('',*,*,#423,.F.);
#541=ORIENTED_EDGE('',*,*,#424,.F.);
#542=ORIENTED_EDGE('',*,*,#425,.T.);
#543=ORIENTED_EDGE('',*,*,#396,.T.);
#544=ORIENTED_EDGE('',*,*,#425,.F.);
#545=ORIENTED_EDGE('',*,*,#426,.F.);
#546=ORIENTED_EDGE('',*,*,#427,.T.);
#547=ORIENTED_EDGE('',*,*,#428,.T.);
#548=ORIENTED_EDGE('',*,*,#414,.F.);
#549=ORIENTED_EDGE('',*,*,#429,.F.);
#550=ORIENTED_EDGE('',*,*,#430,.T.);
#551=ORIENTED_EDGE('',*,*,#431,.T.);
#552=ORIENTED_EDGE('',*,*,#404,.F.);
#553=ORIENTED_EDGE('',*,*,#432,.F.);
#554=ORIENTED_EDGE('',*,*,#433,.T.);
#555=ORIENTED_EDGE('',*,*,#434,.T.);
#556=ORIENTED_EDGE('',*,*,#408,.F.);
#557=ORIENTED_EDGE('',*,*,#435,.T.);
#558=ORIENTED_EDGE('',*,*,#415,.F.);
#559=ORIENTED_EDGE('',*,*,#428,.F.);
#560=ORIENTED_EDGE('',*,*,#436,.T.);
#561=ORIENTED_EDGE('',*,*,#437,.T.);
#562=ORIENTED_EDGE('',*,*,#405,.F.);
#563=ORIENTED_EDGE('',*,*,#431,.F.);
#564=ORIENTED_EDGE('',*,*,#438,.T.);
#565=ORIENTED_EDGE('',*,*,#439,.T.);
#566=ORIENTED_EDGE('',*,*,#409,.F.);
#567=ORIENTED_EDGE('',*,*,#434,.F.);
#568=ORIENTED_EDGE('',*,*,#440,.T.);
#569=ORIENTED_EDGE('',*,*,#441,.T.);
#570=ORIENTED_EDGE('',*,*,#413,.F.);
#571=ORIENTED_EDGE('',*,*,#442,.F.);
#572=ORIENTED_EDGE('',*,*,#443,.T.);
#573=ORIENTED_EDGE('',*,*,#444,.F.);
#574=ORIENTED_EDGE('',*,*,#445,.T.);
#575=ORIENTED_EDGE('',*,*,#442,.T.);
#576=ORIENTED_EDGE('',*,*,#412,.F.);
#577=ORIENTED_EDGE('',*,*,#446,.F.);
#578=ORIENTED_EDGE('',*,*,#447,.T.);
#579=ORIENTED_EDGE('',*,*,#448,.F.);
#580=ORIENTED_EDGE('',*,*,#449,.F.);
#581=ORIENTED_EDGE('',*,*,#450,.T.);
#582=ORIENTED_EDGE('',*,*,#449,.T.);
#583=ORIENTED_EDGE('',*,*,#451,.F.);
#584=ORIENTED_EDGE('',*,*,#452,.F.);
#585=ORIENTED_EDGE('',*,*,#453,.T.);
#586=ORIENTED_EDGE('',*,*,#452,.T.);
#587=ORIENTED_EDGE('',*,*,#454,.F.);
#588=ORIENTED_EDGE('',*,*,#455,.F.);
#589=ORIENTED_EDGE('',*,*,#456,.F.);
#590=ORIENTED_EDGE('',*,*,#455,.T.);
#591=ORIENTED_EDGE('',*,*,#457,.F.);
#592=ORIENTED_EDGE('',*,*,#458,.F.);
#593=ORIENTED_EDGE('',*,*,#424,.T.);
#594=ORIENTED_EDGE('',*,*,#459,.F.);
#595=ORIENTED_EDGE('',*,*,#458,.T.);
#596=ORIENTED_EDGE('',*,*,#460,.F.);
#597=ORIENTED_EDGE('',*,*,#461,.F.);
#598=ORIENTED_EDGE('',*,*,#462,.T.);
#599=ORIENTED_EDGE('',*,*,#461,.T.);
#600=ORIENTED_EDGE('',*,*,#463,.F.);
#601=ORIENTED_EDGE('',*,*,#420,.F.);
#602=ORIENTED_EDGE('',*,*,#400,.F.);
#603=ORIENTED_EDGE('',*,*,#419,.T.);
#604=ORIENTED_EDGE('',*,*,#464,.F.);
#605=ORIENTED_EDGE('',*,*,#465,.F.);
#606=ORIENTED_EDGE('',*,*,#466,.T.);
#607=ORIENTED_EDGE('',*,*,#465,.T.);
#608=ORIENTED_EDGE('',*,*,#467,.F.);
#609=ORIENTED_EDGE('',*,*,#468,.F.);
#610=ORIENTED_EDGE('',*,*,#469,.F.);
#611=ORIENTED_EDGE('',*,*,#468,.T.);
#612=ORIENTED_EDGE('',*,*,#470,.F.);
#613=ORIENTED_EDGE('',*,*,#447,.F.);
#614=ORIENTED_EDGE('',*,*,#422,.T.);
#615=ORIENTED_EDGE('',*,*,#381,.T.);
#616=ORIENTED_EDGE('',*,*,#398,.F.);
#617=ORIENTED_EDGE('',*,*,#389,.T.);
#618=ORIENTED_EDGE('',*,*,#393,.T.);
#619=ORIENTED_EDGE('',*,*,#421,.T.);
#620=ORIENTED_EDGE('',*,*,#463,.T.);
#621=ORIENTED_EDGE('',*,*,#460,.T.);
#622=ORIENTED_EDGE('',*,*,#457,.T.);
#623=ORIENTED_EDGE('',*,*,#454,.T.);
#624=ORIENTED_EDGE('',*,*,#451,.T.);
#625=ORIENTED_EDGE('',*,*,#448,.T.);
#626=ORIENTED_EDGE('',*,*,#470,.T.);
#627=ORIENTED_EDGE('',*,*,#467,.T.);
#628=ORIENTED_EDGE('',*,*,#464,.T.);
#629=ORIENTED_EDGE('',*,*,#418,.T.);
#630=ORIENTED_EDGE('',*,*,#385,.T.);
#631=ORIENTED_EDGE('',*,*,#471,.F.);
#632=ORIENTED_EDGE('',*,*,#444,.T.);
#633=ORIENTED_EDGE('',*,*,#411,.F.);
#634=ORIENTED_EDGE('',*,*,#472,.F.);
#635=ORIENTED_EDGE('',*,*,#473,.F.);
#636=ORIENTED_EDGE('',*,*,#472,.T.);
#637=ORIENTED_EDGE('',*,*,#410,.F.);
#638=ORIENTED_EDGE('',*,*,#441,.F.);
#639=ORIENTED_EDGE('',*,*,#474,.F.);
#640=ORIENTED_EDGE('',*,*,#432,.T.);
#641=ORIENTED_EDGE('',*,*,#407,.F.);
#642=ORIENTED_EDGE('',*,*,#475,.F.);
#643=ORIENTED_EDGE('',*,*,#476,.F.);
#644=ORIENTED_EDGE('',*,*,#475,.T.);
#645=ORIENTED_EDGE('',*,*,#406,.F.);
#646=ORIENTED_EDGE('',*,*,#439,.F.);
#647=ORIENTED_EDGE('',*,*,#477,.F.);
#648=ORIENTED_EDGE('',*,*,#429,.T.);
#649=ORIENTED_EDGE('',*,*,#403,.F.);
#650=ORIENTED_EDGE('',*,*,#478,.F.);
#651=ORIENTED_EDGE('',*,*,#479,.F.);
#652=ORIENTED_EDGE('',*,*,#478,.T.);
#653=ORIENTED_EDGE('',*,*,#402,.F.);
#654=ORIENTED_EDGE('',*,*,#437,.F.);
#655=ORIENTED_EDGE('',*,*,#480,.F.);
#656=ORIENTED_EDGE('',*,*,#426,.T.);
#657=ORIENTED_EDGE('',*,*,#417,.F.);
#658=ORIENTED_EDGE('',*,*,#481,.F.);
#659=ORIENTED_EDGE('',*,*,#482,.F.);
#660=ORIENTED_EDGE('',*,*,#481,.T.);
#661=ORIENTED_EDGE('',*,*,#416,.F.);
#662=ORIENTED_EDGE('',*,*,#435,.F.);
#663=ORIENTED_EDGE('',*,*,#462,.F.);
#664=ORIENTED_EDGE('',*,*,#466,.F.);
#665=ORIENTED_EDGE('',*,*,#469,.T.);
#666=ORIENTED_EDGE('',*,*,#446,.T.);
#667=ORIENTED_EDGE('',*,*,#450,.F.);
#668=ORIENTED_EDGE('',*,*,#453,.F.);
#669=ORIENTED_EDGE('',*,*,#456,.T.);
#670=ORIENTED_EDGE('',*,*,#459,.T.);
#671=ORIENTED_EDGE('',*,*,#480,.T.);
#672=ORIENTED_EDGE('',*,*,#482,.T.);
#673=ORIENTED_EDGE('',*,*,#436,.F.);
#674=ORIENTED_EDGE('',*,*,#427,.F.);
#675=ORIENTED_EDGE('',*,*,#438,.F.);
#676=ORIENTED_EDGE('',*,*,#430,.F.);
#677=ORIENTED_EDGE('',*,*,#477,.T.);
#678=ORIENTED_EDGE('',*,*,#479,.T.);
#679=ORIENTED_EDGE('',*,*,#440,.F.);
#680=ORIENTED_EDGE('',*,*,#433,.F.);
#681=ORIENTED_EDGE('',*,*,#474,.T.);
#682=ORIENTED_EDGE('',*,*,#476,.T.);
#683=ORIENTED_EDGE('',*,*,#443,.F.);
#684=ORIENTED_EDGE('',*,*,#445,.F.);
#685=ORIENTED_EDGE('',*,*,#471,.T.);
#686=ORIENTED_EDGE('',*,*,#473,.T.);
#687=PLANE('',#771);
#688=PLANE('',#772);
#689=PLANE('',#774);
#690=PLANE('',#775);
#691=PLANE('',#777);
#692=PLANE('',#778);
#693=PLANE('',#779);
#694=PLANE('',#780);
#695=PLANE('',#785);
#696=PLANE('',#786);
#697=PLANE('',#787);
#698=PLANE('',#788);
#699=PLANE('',#789);
#700=PLANE('',#790);
#701=PLANE('',#791);
#702=PLANE('',#792);
#703=PLANE('',#793);
#704=PLANE('',#794);
#705=PLANE('',#795);
#706=PLANE('',#796);
#707=PLANE('',#797);
#708=PLANE('',#798);
#709=PLANE('',#799);
#710=PLANE('',#800);
#711=PLANE('',#801);
#712=PLANE('',#802);
#713=PLANE('',#803);
#714=PLANE('',#804);
#715=PLANE('',#805);
#716=PLANE('',#806);
#717=PLANE('',#807);
#718=PLANE('',#808);
#719=PLANE('',#809);
#720=PLANE('',#810);
#721=ADVANCED_FACE('',(#33),#687,.F.);
#722=ADVANCED_FACE('',(#34,#17),#688,.F.);
#723=ADVANCED_FACE('',(#35),#689,.F.);
#724=ADVANCED_FACE('',(#36,#18),#690,.F.);
#725=ADVANCED_FACE('',(#37),#691,.T.);
#726=ADVANCED_FACE('',(#38,#19,#20,#21,#22),#692,.T.);
#727=ADVANCED_FACE('',(#39),#693,.T.);
#728=ADVANCED_FACE('',(#40),#694,.T.);
#729=ADVANCED_FACE('',(#41),#15,.F.);
#730=ADVANCED_FACE('',(#42),#16,.F.);
#731=ADVANCED_FACE('',(#43),#695,.T.);
#732=ADVANCED_FACE('',(#44),#696,.T.);
#733=ADVANCED_FACE('',(#45),#697,.T.);
#734=ADVANCED_FACE('',(#46),#698,.T.);
#735=ADVANCED_FACE('',(#47),#699,.T.);
#736=ADVANCED_FACE('',(#48),#700,.T.);
#737=ADVANCED_FACE('',(#49),#701,.T.);
#738=ADVANCED_FACE('',(#50),#702,.T.);
#739=ADVANCED_FACE('',(#51),#703,.T.);
#740=ADVANCED_FACE('',(#52),#704,.T.);
#741=ADVANCED_FACE('',(#53),#705,.T.);
#742=ADVANCED_FACE('',(#54,#23),#706,.T.);
#743=ADVANCED_FACE('',(#55),#707,.T.);
#744=ADVANCED_FACE('',(#56),#708,.T.);
#745=ADVANCED_FACE('',(#57),#709,.T.);
#746=ADVANCED_FACE('',(#58,#24),#710,.T.);
#747=ADVANCED_FACE('',(#59),#711,.T.);
#748=ADVANCED_FACE('',(#60),#712,.T.);
#749=ADVANCED_FACE('',(#61),#713,.T.);
#750=ADVANCED_FACE('',(#62),#714,.T.);
#751=ADVANCED_FACE('',(#63),#715,.T.);
#752=ADVANCED_FACE('',(#64),#716,.T.);
#753=ADVANCED_FACE('',(#65),#717,.T.);
#754=ADVANCED_FACE('',(#66),#718,.T.);
#755=ADVANCED_FACE('',(#67),#719,.T.);
#756=ADVANCED_FACE('',(#68,#25,#26,#27,#28),#720,.F.);
#757=CLOSED_SHELL('',(#721,#722,#723,#724,#725,#726,#727,#728,#729,#730,
#731,#732,#733,#734,#735,#736,#737,#738,#739,#740,#741,#742,#743,#744,#745,
#746,#747,#748,#749,#750,#751,#752,#753,#754,#755,#756));
#758=DERIVED_UNIT_ELEMENT(#760,1.);
#759=DERIVED_UNIT_ELEMENT(#1203,-3.);
#760=(
MASS_UNIT()
NAMED_UNIT(*)
SI_UNIT(.KILO.,.GRAM.)
);
#761=DERIVED_UNIT((#758,#759));
#762=MEASURE_REPRESENTATION_ITEM('density measure',
POSITIVE_RATIO_MEASURE(7850.),#761);
#763=PROPERTY_DEFINITION_REPRESENTATION(#768,#765);
#764=PROPERTY_DEFINITION_REPRESENTATION(#769,#766);
#765=REPRESENTATION('material name',(#767),#1200);
#766=REPRESENTATION('density',(#762),#1200);
#767=DESCRIPTIVE_REPRESENTATION_ITEM('Steel','Steel');
#768=PROPERTY_DEFINITION('material property','material name',#1210);
#769=PROPERTY_DEFINITION('material property','density of part',#1210);
#770=AXIS2_PLACEMENT_3D('',#991,#811,#812);
#771=AXIS2_PLACEMENT_3D('',#992,#813,#814);
#772=AXIS2_PLACEMENT_3D('',#1001,#819,#820);
#773=AXIS2_PLACEMENT_3D('',#1008,#824,#825);
#774=AXIS2_PLACEMENT_3D('',#1009,#826,#827);
#775=AXIS2_PLACEMENT_3D('',#1018,#832,#833);
#776=AXIS2_PLACEMENT_3D('',#1025,#837,#838);
#777=AXIS2_PLACEMENT_3D('',#1026,#839,#840);
#778=AXIS2_PLACEMENT_3D('',#1029,#843,#844);
#779=AXIS2_PLACEMENT_3D('',#1067,#864,#865);
#780=AXIS2_PLACEMENT_3D('',#1071,#868,#869);
#781=AXIS2_PLACEMENT_3D('',#1075,#872,#873);
#782=AXIS2_PLACEMENT_3D('',#1077,#874,#875);
#783=AXIS2_PLACEMENT_3D('',#1079,#877,#878);
#784=AXIS2_PLACEMENT_3D('',#1081,#879,#880);
#785=AXIS2_PLACEMENT_3D('',#1083,#882,#883);
#786=AXIS2_PLACEMENT_3D('',#1089,#887,#888);
#787=AXIS2_PLACEMENT_3D('',#1095,#892,#893);
#788=AXIS2_PLACEMENT_3D('',#1101,#897,#898);
#789=AXIS2_PLACEMENT_3D('',#1105,#901,#902);
#790=AXIS2_PLACEMENT_3D('',#1109,#905,#906);
#791=AXIS2_PLACEMENT_3D('',#1113,#909,#910);
#792=AXIS2_PLACEMENT_3D('',#1119,#914,#915);
#793=AXIS2_PLACEMENT_3D('',#1123,#918,#919);
#794=AXIS2_PLACEMENT_3D('',#1132,#924,#925);
#795=AXIS2_PLACEMENT_3D('',#1138,#929,#930);
#796=AXIS2_PLACEMENT_3D('',#1144,#934,#935);
#797=AXIS2_PLACEMENT_3D('',#1150,#939,#940);
#798=AXIS2_PLACEMENT_3D('',#1156,#944,#945);
#799=AXIS2_PLACEMENT_3D('',#1163,#950,#951);
#800=AXIS2_PLACEMENT_3D('',#1169,#955,#956);
#801=AXIS2_PLACEMENT_3D('',#1172,#959,#960);
#802=AXIS2_PLACEMENT_3D('',#1173,#961,#962);
#803=AXIS2_PLACEMENT_3D('',#1177,#965,#966);
#804=AXIS2_PLACEMENT_3D('',#1179,#968,#969);
#805=AXIS2_PLACEMENT_3D('',#1183,#972,#973);
#806=AXIS2_PLACEMENT_3D('',#1185,#975,#976);
#807=AXIS2_PLACEMENT_3D('',#1189,#979,#980);
#808=AXIS2_PLACEMENT_3D('',#1191,#982,#983);
#809=AXIS2_PLACEMENT_3D('',#1195,#986,#987);
#810=AXIS2_PLACEMENT_3D('',#1197,#989,#990);
#811=DIRECTION('axis',(0.,0.,1.));
#812=DIRECTION('refdir',(1.,0.,0.));
#813=DIRECTION('center_axis',(-1.,0.,0.));
#814=DIRECTION('ref_axis',(0.,1.,0.));
#815=DIRECTION('',(0.,1.,0.));
#816=DIRECTION('',(0.,0.,-1.));
#817=DIRECTION('',(0.,1.,0.));
#818=DIRECTION('',(0.,0.,-1.));
#819=DIRECTION('center_axis',(0.,-1.,0.));
#820=DIRECTION('ref_axis',(-1.,0.,0.));
#821=DIRECTION('',(-1.,0.,0.));
#822=DIRECTION('',(0.,0.,-1.));
#823=DIRECTION('',(-1.,0.,0.));
#824=DIRECTION('center_axis',(0.,1.,0.));
#825=DIRECTION('ref_axis',(1.,0.,0.));
#826=DIRECTION('center_axis',(1.,0.,0.));
#827=DIRECTION('ref_axis',(0.,-1.,0.));
#828=DIRECTION('',(0.,-1.,0.));
#829=DIRECTION('',(0.,0.,1.));
#830=DIRECTION('',(0.,-1.,0.));
#831=DIRECTION('',(0.,0.,-1.));
#832=DIRECTION('center_axis',(0.,-1.,0.));
#833=DIRECTION('ref_axis',(-1.,0.,0.));
#834=DIRECTION('',(-1.,0.,0.));
#835=DIRECTION('',(-1.,0.,0.));
#836=DIRECTION('',(0.,0.,-1.));
#837=DIRECTION('center_axis',(0.,1.,0.));
#838=DIRECTION('ref_axis',(1.,0.,0.));
#839=DIRECTION('center_axis',(-9.44870659255452E-17,1.,0.));
#840=DIRECTION('ref_axis',(-1.,-9.44870659255452E-17,0.));
#841=DIRECTION('',(1.,9.44870659255452E-17,0.));
#842=DIRECTION('',(1.,0.,0.));
#843=DIRECTION('center_axis',(0.,0.,1.));
#844=DIRECTION('ref_axis',(1.,0.,0.));
#845=DIRECTION('',(0.,-1.,0.));
#846=DIRECTION('',(-1.,0.,0.));
#847=DIRECTION('',(0.,1.,0.));
#848=DIRECTION('',(0.,-1.,0.));
#849=DIRECTION('',(-1.,0.,0.));
#850=DIRECTION('',(0.,1.,0.));
#851=DIRECTION('',(1.,0.,0.));
#852=DIRECTION('',(1.,0.,0.));
#853=DIRECTION('',(0.,-1.,0.));
#854=DIRECTION('',(-1.,0.,0.));
#855=DIRECTION('',(0.,1.,0.));
#856=DIRECTION('',(0.,1.,0.));
#857=DIRECTION('',(1.,0.,0.));
#858=DIRECTION('',(0.,-1.,0.));
#859=DIRECTION('',(-1.,0.,0.));
#860=DIRECTION('',(1.,0.,0.));
#861=DIRECTION('',(0.,-1.,0.));
#862=DIRECTION('',(-1.,0.,0.));
#863=DIRECTION('',(0.,1.,0.));
#864=DIRECTION('center_axis',(-1.,0.,0.));
#865=DIRECTION('ref_axis',(0.,-1.,0.));
#866=DIRECTION('',(0.,-1.,0.));
#867=DIRECTION('',(0.,0.,1.));
#868=DIRECTION('center_axis',(1.,0.,0.));
#869=DIRECTION('ref_axis',(0.,1.,0.));
#870=DIRECTION('',(0.,0.,1.));
#871=DIRECTION('',(0.,1.,0.));
#872=DIRECTION('center_axis',(0.,1.,0.));
#873=DIRECTION('ref_axis',(1.,0.,0.));
#874=DIRECTION('center_axis',(0.,1.,0.));
#875=DIRECTION('ref_axis',(1.,0.,0.));
#876=DIRECTION('',(0.,1.,0.));
#877=DIRECTION('center_axis',(0.,1.,0.));
#878=DIRECTION('ref_axis',(1.,0.,0.));
#879=DIRECTION('center_axis',(0.,1.,0.));
#880=DIRECTION('ref_axis',(1.,0.,0.));
#881=DIRECTION('',(0.,1.,0.));
#882=DIRECTION('center_axis',(0.,-1.,0.));
#883=DIRECTION('ref_axis',(1.,0.,0.));
#884=DIRECTION('',(0.,0.,1.));
#885=DIRECTION('',(1.,0.,0.));
#886=DIRECTION('',(0.,0.,1.));
#887=DIRECTION('center_axis',(1.,0.,0.));
#888=DIRECTION('ref_axis',(0.,1.,0.));
#889=DIRECTION('',(0.,0.,1.));
#890=DIRECTION('',(0.,1.,0.));
#891=DIRECTION('',(0.,0.,1.));
#892=DIRECTION('center_axis',(0.,1.,0.));
#893=DIRECTION('ref_axis',(-1.,0.,0.));
#894=DIRECTION('',(0.,0.,1.));
#895=DIRECTION('',(-1.,0.,0.));
#896=DIRECTION('',(0.,0.,1.));
#897=DIRECTION('center_axis',(-1.,0.,0.));
#898=DIRECTION('ref_axis',(0.,-1.,0.));
#899=DIRECTION('',(0.,0.,1.));
#900=DIRECTION('',(0.,-1.,0.));
#901=DIRECTION('center_axis',(0.,-1.,0.));
#902=DIRECTION('ref_axis',(1.,0.,0.));
#903=DIRECTION('',(0.,0.,1.));
#904=DIRECTION('',(1.,0.,0.));
#905=DIRECTION('center_axis',(1.,0.,0.));
#906=DIRECTION('ref_axis',(0.,1.,0.));
#907=DIRECTION('',(0.,0.,1.));
#908=DIRECTION('',(0.,1.,0.));
#909=DIRECTION('center_axis',(0.,1.,0.));
#910=DIRECTION('ref_axis',(-1.,0.,0.));
#911=DIRECTION('',(0.,0.,1.));
#912=DIRECTION('',(0.,0.,1.));
#913=DIRECTION('',(-1.,0.,0.));
#914=DIRECTION('center_axis',(-1.,0.,0.));
#915=DIRECTION('ref_axis',(0.,-1.,0.));
#916=DIRECTION('',(0.,0.,1.));
#917=DIRECTION('',(0.,-1.,0.));
#918=DIRECTION('center_axis',(-1.,0.,0.));
#919=DIRECTION('ref_axis',(0.,-1.,0.));
#920=DIRECTION('',(0.,1.,0.));
#921=DIRECTION('',(0.,0.,1.));
#922=DIRECTION('',(0.,-1.,0.));
#923=DIRECTION('',(0.,0.,1.));
#924=DIRECTION('center_axis',(0.,-1.,0.));
#925=DIRECTION('ref_axis',(1.,0.,0.));
#926=DIRECTION('',(1.,0.,0.));
#927=DIRECTION('',(1.,0.,0.));
#928=DIRECTION('',(0.,0.,1.));
#929=DIRECTION('center_axis',(1.,0.,0.));
#930=DIRECTION('ref_axis',(0.,1.,0.));
#931=DIRECTION('',(0.,1.,0.));
#932=DIRECTION('',(0.,1.,0.));
#933=DIRECTION('',(0.,0.,1.));
#934=DIRECTION('center_axis',(0.,-1.,0.));
#935=DIRECTION('ref_axis',(1.,0.,0.));
#936=DIRECTION('',(-1.,0.,0.));
#937=DIRECTION('',(1.,0.,0.));
#938=DIRECTION('',(0.,0.,1.));
#939=DIRECTION('center_axis',(-1.,0.,0.));
#940=DIRECTION('ref_axis',(0.,-1.,0.));
#941=DIRECTION('',(0.,1.,0.));
#942=DIRECTION('',(0.,-1.,0.));
#943=DIRECTION('',(0.,0.,1.));
#944=DIRECTION('center_axis',(0.,1.,0.));
#945=DIRECTION('ref_axis',(-1.,0.,0.));
#946=DIRECTION('',(-1.,0.,0.));
#947=DIRECTION('',(-1.,0.,0.));
#948=DIRECTION('',(-1.,0.,0.));
#949=DIRECTION('',(0.,0.,1.));
#950=DIRECTION('center_axis',(1.,0.,0.));
#951=DIRECTION('ref_axis',(0.,1.,0.));
#952=DIRECTION('',(0.,1.,0.));
#953=DIRECTION('',(0.,1.,0.));
#954=DIRECTION('',(0.,0.,1.));
#955=DIRECTION('center_axis',(0.,-1.,0.));
#956=DIRECTION('ref_axis',(1.,0.,0.));
#957=DIRECTION('',(-1.,0.,0.));
#958=DIRECTION('',(1.,0.,0.));
#959=DIRECTION('center_axis',(0.,0.,1.));
#960=DIRECTION('ref_axis',(1.,0.,0.));
#961=DIRECTION('center_axis',(0.,-1.,0.));
#962=DIRECTION('ref_axis',(1.,0.,0.));
#963=DIRECTION('',(-1.,0.,0.));
#964=DIRECTION('',(0.,0.,1.));
#965=DIRECTION('center_axis',(1.,0.,0.));
#966=DIRECTION('ref_axis',(0.,1.,0.));
#967=DIRECTION('',(0.,-1.,0.));
#968=DIRECTION('center_axis',(-1.,0.,0.));
#969=DIRECTION('ref_axis',(0.,-1.,0.));
#970=DIRECTION('',(0.,1.,0.));
#971=DIRECTION('',(0.,0.,1.));
#972=DIRECTION('center_axis',(0.,-1.,0.));
#973=DIRECTION('ref_axis',(1.,0.,0.));
#974=DIRECTION('',(-1.,0.,0.));
#975=DIRECTION('center_axis',(0.,1.,0.));
#976=DIRECTION('ref_axis',(-1.,0.,0.));
#977=DIRECTION('',(1.,0.,0.));
#978=DIRECTION('',(0.,0.,1.));
#979=DIRECTION('center_axis',(-1.,0.,0.));
#980=DIRECTION('ref_axis',(0.,-1.,0.));
#981=DIRECTION('',(0.,1.,0.));
#982=DIRECTION('center_axis',(1.,0.,0.));
#983=DIRECTION('ref_axis',(0.,1.,0.));
#984=DIRECTION('',(0.,-1.,0.));
#985=DIRECTION('',(0.,0.,1.));
#986=DIRECTION('center_axis',(0.,1.,0.));
#987=DIRECTION('ref_axis',(-1.,0.,0.));
#988=DIRECTION('',(1.,0.,0.));
#989=DIRECTION('center_axis',(0.,0.,1.));
#990=DIRECTION('ref_axis',(1.,0.,0.));
#991=CARTESIAN_POINT('',(0.,0.,0.));
#992=CARTESIAN_POINT('Origin',(76.0000041127205,-200.,20.));
#993=CARTESIAN_POINT('',(76.0000041127205,-200.,20.));
#994=CARTESIAN_POINT('',(76.0000041127205,-190.,20.));
#995=CARTESIAN_POINT('',(76.0000041127205,-170.25,20.));
#996=CARTESIAN_POINT('',(76.0000041127205,-200.,3.));
#997=CARTESIAN_POINT('',(76.0000041127205,-200.,20.));
#998=CARTESIAN_POINT('',(76.0000041127205,-190.,3.));
#999=CARTESIAN_POINT('',(76.0000041127205,-200.,3.));
#1000=CARTESIAN_POINT('',(76.0000041127205,-190.,10.));
#1001=CARTESIAN_POINT('Origin',(94.9999980777502,-200.,20.));
#1002=CARTESIAN_POINT('',(94.9999980777502,-200.,20.));
#1003=CARTESIAN_POINT('',(49.4999990388751,-200.,20.));
#1004=CARTESIAN_POINT('',(94.9999980777502,-200.,3.));
#1005=CARTESIAN_POINT('',(94.9999980777502,-200.,20.));
#1006=CARTESIAN_POINT('',(94.9999980777502,-200.,3.));
#1007=CARTESIAN_POINT('',(77.4999990165233,-200.,11.));
#1008=CARTESIAN_POINT('Origin',(82.9999990165233,-200.,11.));
#1009=CARTESIAN_POINT('Origin',(-67.9999980330467,-190.,20.));
#1010=CARTESIAN_POINT('',(-67.9999980330467,-190.,20.));
#1011=CARTESIAN_POINT('',(-67.9999980330467,-200.,20.));
#1012=CARTESIAN_POINT('',(-67.9999980330467,-165.25,20.));
#1013=CARTESIAN_POINT('',(-67.9999980330467,-190.,3.));
#1014=CARTESIAN_POINT('',(-67.9999980330467,-190.,10.));
#1015=CARTESIAN_POINT('',(-67.9999980330467,-200.,3.));
#1016=CARTESIAN_POINT('',(-67.9999980330467,-190.,3.));
#1017=CARTESIAN_POINT('',(-67.9999980330467,-200.,20.));
#1018=CARTESIAN_POINT('Origin',(-67.9999980330467,-200.,20.));
#1019=CARTESIAN_POINT('',(-86.9999983484896,-200.,20.));
#1020=CARTESIAN_POINT('',(-31.9999990165234,-200.,20.));
#1021=CARTESIAN_POINT('',(-86.9999983484896,-200.,3.));
#1022=CARTESIAN_POINT('',(-67.9999980330467,-200.,3.));
#1023=CARTESIAN_POINT('',(-86.9999983484896,-200.,20.));
#1024=CARTESIAN_POINT('',(-80.4999990165234,-200.,11.));
#1025=CARTESIAN_POINT('Origin',(-74.9999990165234,-200.,11.));
#1026=CARTESIAN_POINT('Origin',(-67.9999980330467,-190.,0.));
#1027=CARTESIAN_POINT('',(-31.9999990165234,-190.,3.));
#1028=CARTESIAN_POINT('',(76.0000041127205,-190.,20.));
#1029=CARTESIAN_POINT('Origin',(3.99999999999999,-129.,3.));
#1030=CARTESIAN_POINT('',(95.,-68.,3.));
#1031=CARTESIAN_POINT('',(94.9999980777502,-190.,3.));
#1032=CARTESIAN_POINT('',(-87.,-68.,3.));
#1033=CARTESIAN_POINT('',(-90.,-68.,3.));
#1034=CARTESIAN_POINT('',(-86.9999980777502,-169.5,3.));
#1035=CARTESIAN_POINT('',(2.5,-94.,3.));
#1036=CARTESIAN_POINT('',(2.5,-127.5,3.));
#1037=CARTESIAN_POINT('',(2.5,-164.,3.));
#1038=CARTESIAN_POINT('',(-51.,-127.5,3.));
#1039=CARTESIAN_POINT('',(-51.,-127.5,3.));
#1040=CARTESIAN_POINT('',(-51.,-94.,3.));
#1041=CARTESIAN_POINT('',(-51.,-164.,3.));
#1042=CARTESIAN_POINT('',(-51.,-94.,3.));
#1043=CARTESIAN_POINT('',(-51.,-130.5,3.));
#1044=CARTESIAN_POINT('',(2.5,-130.5,3.));
#1045=CARTESIAN_POINT('',(59.,-130.5,3.));
#1046=CARTESIAN_POINT('',(2.5,-164.,3.));
#1047=CARTESIAN_POINT('',(2.5,-164.,3.));
#1048=CARTESIAN_POINT('',(-51.,-164.,3.));
#1049=CARTESIAN_POINT('',(59.,-164.,3.));
#1050=CARTESIAN_POINT('',(-51.,-164.,3.));
#1051=CARTESIAN_POINT('',(5.49999999999997,-164.,3.));
#1052=CARTESIAN_POINT('',(5.49999999999997,-130.5,3.));
#1053=CARTESIAN_POINT('',(5.49999999999997,-94.,3.));
#1054=CARTESIAN_POINT('',(59.,-130.5,3.));
#1055=CARTESIAN_POINT('',(59.,-130.5,3.));
#1056=CARTESIAN_POINT('',(59.,-164.,3.));
#1057=CARTESIAN_POINT('',(59.,-94.,3.));
#1058=CARTESIAN_POINT('',(59.,-164.,3.));
#1059=CARTESIAN_POINT('',(5.49999999999997,-94.,3.));
#1060=CARTESIAN_POINT('',(59.,-94.,3.));
#1061=CARTESIAN_POINT('',(-51.,-94.,3.));
#1062=CARTESIAN_POINT('',(59.,-127.5,3.));
#1063=CARTESIAN_POINT('',(59.,-94.,3.));
#1064=CARTESIAN_POINT('',(5.49999999999997,-127.5,3.));
#1065=CARTESIAN_POINT('',(-51.,-127.5,3.));
#1066=CARTESIAN_POINT('',(5.49999999999997,-94.,3.));
#1067=CARTESIAN_POINT('Origin',(95.,-68.,0.));
#1068=CARTESIAN_POINT('',(95.,-68.,20.));
#1069=CARTESIAN_POINT('',(94.9999980777502,-165.25,20.));
#1070=CARTESIAN_POINT('',(95.,-68.,0.));
#1071=CARTESIAN_POINT('Origin',(-86.9999980777502,-210.,0.));
#1072=CARTESIAN_POINT('',(-87.,-68.,20.));
#1073=CARTESIAN_POINT('',(-87.,-68.,0.));
#1074=CARTESIAN_POINT('',(-86.9999980777502,-190.,20.));
#1075=CARTESIAN_POINT('Origin',(82.9999990165233,-213.,11.));
#1076=CARTESIAN_POINT('',(77.4999990165233,-213.,11.));
#1077=CARTESIAN_POINT('Origin',(82.9999990165233,-213.,11.));
#1078=CARTESIAN_POINT('',(77.4999990165233,-213.,11.));
#1079=CARTESIAN_POINT('Origin',(-74.9999990165234,-213.,11.));
#1080=CARTESIAN_POINT('',(-80.4999990165234,-213.,11.));
#1081=CARTESIAN_POINT('Origin',(-74.9999990165234,-213.,11.));
#1082=CARTESIAN_POINT('',(-80.4999990165234,-213.,11.));
#1083=CARTESIAN_POINT('Origin',(-51.,-94.,0.));
#1084=CARTESIAN_POINT('',(5.49999999999997,-94.,0.));
#1085=CARTESIAN_POINT('',(5.49999999999997,-94.,0.));
#1086=CARTESIAN_POINT('',(59.,-94.,0.));
#1087=CARTESIAN_POINT('',(-51.,-94.,0.));
#1088=CARTESIAN_POINT('',(59.,-94.,0.));
#1089=CARTESIAN_POINT('Origin',(-51.,-164.,0.));
#1090=CARTESIAN_POINT('',(-51.,-127.5,0.));
#1091=CARTESIAN_POINT('',(-51.,-127.5,0.));
#1092=CARTESIAN_POINT('',(-51.,-94.,0.));
#1093=CARTESIAN_POINT('',(-51.,-164.,0.));
#1094=CARTESIAN_POINT('',(-51.,-94.,0.));
#1095=CARTESIAN_POINT('Origin',(59.,-164.,0.));
#1096=CARTESIAN_POINT('',(2.5,-164.,0.));
#1097=CARTESIAN_POINT('',(2.5,-164.,0.));
#1098=CARTESIAN_POINT('',(-51.,-164.,0.));
#1099=CARTESIAN_POINT('',(59.,-164.,0.));
#1100=CARTESIAN_POINT('',(-51.,-164.,0.));
#1101=CARTESIAN_POINT('Origin',(59.,-94.,0.));
#1102=CARTESIAN_POINT('',(59.,-127.5,0.));
#1103=CARTESIAN_POINT('',(59.,-127.5,0.));
#1104=CARTESIAN_POINT('',(59.,-94.,0.));
#1105=CARTESIAN_POINT('Origin',(-51.,-94.,0.));
#1106=CARTESIAN_POINT('',(2.5,-94.,0.));
#1107=CARTESIAN_POINT('',(2.5,-94.,0.));
#1108=CARTESIAN_POINT('',(-51.,-94.,0.));
#1109=CARTESIAN_POINT('Origin',(-51.,-164.,0.));
#1110=CARTESIAN_POINT('',(-51.,-130.5,0.));
#1111=CARTESIAN_POINT('',(-51.,-130.5,0.));
#1112=CARTESIAN_POINT('',(-51.,-164.,0.));
#1113=CARTESIAN_POINT('Origin',(59.,-164.,0.));
#1114=CARTESIAN_POINT('',(5.49999999999997,-164.,0.));
#1115=CARTESIAN_POINT('',(5.49999999999997,-164.,0.));
#1116=CARTESIAN_POINT('',(59.,-164.,0.));
#1117=CARTESIAN_POINT('',(59.,-164.,0.));
#1118=CARTESIAN_POINT('',(59.,-164.,0.));
#1119=CARTESIAN_POINT('Origin',(59.,-94.,0.));
#1120=CARTESIAN_POINT('',(59.,-130.5,0.));
#1121=CARTESIAN_POINT('',(59.,-130.5,0.));
#1122=CARTESIAN_POINT('',(59.,-94.,0.));
#1123=CARTESIAN_POINT('Origin',(73.000004068017,-193.000000938773,0.));
#1124=CARTESIAN_POINT('',(73.000004068017,-213.,0.));
#1125=CARTESIAN_POINT('',(73.000004068017,-193.000000938773,0.));
#1126=CARTESIAN_POINT('',(73.000004068017,-213.,0.));
#1127=CARTESIAN_POINT('',(73.000004068017,-213.,20.));
#1128=CARTESIAN_POINT('',(73.000004068017,-213.,0.));
#1129=CARTESIAN_POINT('',(73.000004068017,-193.000000938773,20.));
#1130=CARTESIAN_POINT('',(73.000004068017,-213.,20.));
#1131=CARTESIAN_POINT('',(73.000004068017,-193.000000938773,0.));
#1132=CARTESIAN_POINT('Origin',(-64.9999979883432,-193.000000938773,0.));
#1133=CARTESIAN_POINT('',(-64.9999979883432,-193.000000938773,0.));
#1134=CARTESIAN_POINT('',(-67.9999980330467,-193.000000938773,0.));
#1135=CARTESIAN_POINT('',(-64.9999979883432,-193.000000938773,20.));
#1136=CARTESIAN_POINT('',(-67.9999980330467,-193.000000938773,20.));
#1137=CARTESIAN_POINT('',(-64.9999979883432,-193.000000938773,0.));
#1138=CARTESIAN_POINT('Origin',(-64.9999979883432,-213.,0.));
#1139=CARTESIAN_POINT('',(-64.9999979883432,-213.,0.));
#1140=CARTESIAN_POINT('',(-64.9999979883432,-213.,0.));
#1141=CARTESIAN_POINT('',(-64.9999979883432,-213.,20.));
#1142=CARTESIAN_POINT('',(-64.9999979883432,-213.,20.));
#1143=CARTESIAN_POINT('',(-64.9999979883432,-213.,0.));
#1144=CARTESIAN_POINT('Origin',(-90.,-213.,0.));
#1145=CARTESIAN_POINT('',(-90.,-213.,0.));
#1146=CARTESIAN_POINT('',(-70.9999980777502,-213.,0.));
#1147=CARTESIAN_POINT('',(-90.,-213.,20.));
#1148=CARTESIAN_POINT('',(-70.9999980777502,-213.,20.));
#1149=CARTESIAN_POINT('',(-90.,-213.,0.));
#1150=CARTESIAN_POINT('Origin',(-90.,-68.,0.));
#1151=CARTESIAN_POINT('',(-90.,-68.,0.));
#1152=CARTESIAN_POINT('',(-90.,-190.,0.));
#1153=CARTESIAN_POINT('',(-90.,-68.,20.));
#1154=CARTESIAN_POINT('',(-90.,-190.,20.));
#1155=CARTESIAN_POINT('',(-90.,-68.,0.));
#1156=CARTESIAN_POINT('Origin',(-87.,-68.,0.));
#1157=CARTESIAN_POINT('',(98.,-68.,0.));
#1158=CARTESIAN_POINT('',(98.,-68.,0.));
#1159=CARTESIAN_POINT('',(-90.,-68.,20.));
#1160=CARTESIAN_POINT('',(98.,-68.,20.));
#1161=CARTESIAN_POINT('',(98.,-68.,20.));
#1162=CARTESIAN_POINT('',(98.,-68.,0.));
#1163=CARTESIAN_POINT('Origin',(98.,-213.,0.));
#1164=CARTESIAN_POINT('',(98.,-213.,0.));
#1165=CARTESIAN_POINT('',(98.,-213.,0.));
#1166=CARTESIAN_POINT('',(98.,-213.,20.));
#1167=CARTESIAN_POINT('',(98.,-213.,20.));
#1168=CARTESIAN_POINT('',(98.,-213.,0.));
#1169=CARTESIAN_POINT('Origin',(73.000004068017,-213.,0.));
#1170=CARTESIAN_POINT('',(75.9999980330467,-213.,0.));
#1171=CARTESIAN_POINT('',(75.9999980330467,-213.,20.));
#1172=CARTESIAN_POINT('Origin',(3.99999999999999,-140.5,20.));
#1173=CARTESIAN_POINT('Origin',(5.49999999999997,-130.5,0.));
#1174=CARTESIAN_POINT('',(5.49999999999997,-130.5,0.));
#1175=CARTESIAN_POINT('',(59.,-130.5,0.));
#1176=CARTESIAN_POINT('',(5.49999999999997,-130.5,0.));
#1177=CARTESIAN_POINT('Origin',(5.49999999999997,-164.,0.));
#1178=CARTESIAN_POINT('',(5.49999999999997,-94.,0.));
#1179=CARTESIAN_POINT('Origin',(2.5,-130.5,0.));
#1180=CARTESIAN_POINT('',(2.5,-130.5,0.));
#1181=CARTESIAN_POINT('',(2.5,-164.,0.));
#1182=CARTESIAN_POINT('',(2.5,-130.5,0.));
#1183=CARTESIAN_POINT('Origin',(-51.,-130.5,0.));
#1184=CARTESIAN_POINT('',(59.,-130.5,0.));
#1185=CARTESIAN_POINT('Origin',(2.5,-127.5,0.));
#1186=CARTESIAN_POINT('',(2.5,-127.5,0.));
#1187=CARTESIAN_POINT('',(-51.,-127.5,0.));
#1188=CARTESIAN_POINT('',(2.5,-127.5,0.));
#1189=CARTESIAN_POINT('Origin',(2.5,-94.,0.));
#1190=CARTESIAN_POINT('',(2.5,-164.,0.));
#1191=CARTESIAN_POINT('Origin',(5.49999999999997,-127.5,0.));
#1192=CARTESIAN_POINT('',(5.49999999999997,-127.5,0.));
#1193=CARTESIAN_POINT('',(5.49999999999997,-94.,0.));
#1194=CARTESIAN_POINT('',(5.49999999999997,-127.5,0.));
#1195=CARTESIAN_POINT('Origin',(59.,-127.5,0.));
#1196=CARTESIAN_POINT('',(-51.,-127.5,0.));
#1197=CARTESIAN_POINT('Origin',(3.99999999999999,-129.,0.));
#1198=UNCERTAINTY_MEASURE_WITH_UNIT(LENGTH_MEASURE(0.01),#1202,
'DISTANCE_ACCURACY_VALUE',
'Maximum model space distance between geometric entities at asserted c
onnectivities');
#1199=UNCERTAINTY_MEASURE_WITH_UNIT(LENGTH_MEASURE(0.01),#1202,
'DISTANCE_ACCURACY_VALUE',
'Maximum model space distance between geometric entities at asserted c
onnectivities');
#1200=(
GEOMETRIC_REPRESENTATION_CONTEXT(3)
GLOBAL_UNCERTAINTY_ASSIGNED_CONTEXT((#1198))
GLOBAL_UNIT_ASSIGNED_CONTEXT((#1202,#1204,#1205))
REPRESENTATION_CONTEXT('','3D')
);
#1201=(
GEOMETRIC_REPRESENTATION_CONTEXT(3)
GLOBAL_UNCERTAINTY_ASSIGNED_CONTEXT((#1199))
GLOBAL_UNIT_ASSIGNED_CONTEXT((#1202,#1204,#1205))
REPRESENTATION_CONTEXT('','3D')
);
#1202=(
LENGTH_UNIT()
NAMED_UNIT(*)
SI_UNIT(.MILLI.,.METRE.)
);
#1203=(
LENGTH_UNIT()
NAMED_UNIT(*)
SI_UNIT($,.METRE.)
);
#1204=(
NAMED_UNIT(*)
PLANE_ANGLE_UNIT()
SI_UNIT($,.RADIAN.)
);
#1205=(
NAMED_UNIT(*)
SI_UNIT($,.STERADIAN.)
SOLID_ANGLE_UNIT()
);
#1206=SHAPE_DEFINITION_REPRESENTATION(#1207,#1208);
#1207=PRODUCT_DEFINITION_SHAPE('',$,#1210);
#1208=SHAPE_REPRESENTATION('',(#770),#1200);
#1209=PRODUCT_DEFINITION_CONTEXT('part definition',#1214,'design');
#1210=PRODUCT_DEFINITION('2025-07-23-11-50-06-038','EZ-Phoresis_lid',#1211,
#1209);
#1211=PRODUCT_DEFINITION_FORMATION('',$,#1216);
#1212=PRODUCT_RELATED_PRODUCT_CATEGORY('EZ-Phoresis_lid',
'EZ-Phoresis_lid',(#1216));
#1213=APPLICATION_PROTOCOL_DEFINITION('international standard',
'automotive_design',2009,#1214);
#1214=APPLICATION_CONTEXT(
'Core Data for Automotive Mechanical Design Process');
#1215=PRODUCT_CONTEXT('part definition',#1214,'mechanical');
#1216=PRODUCT('2025-07-23-11-50-06-038','EZ-Phoresis_lid',$,(#1215));
#1217=PRESENTATION_STYLE_ASSIGNMENT((#1218));
#1218=SURFACE_STYLE_USAGE(.BOTH.,#1219);
#1219=SURFACE_SIDE_STYLE('',(#1220));
#1220=SURFACE_STYLE_FILL_AREA(#1221);
#1221=FILL_AREA_STYLE('Steel - Satin',(#1222));
#1222=FILL_AREA_STYLE_COLOUR('Steel - Satin',#1223);
#1223=COLOUR_RGB('Steel - Satin',0.627450980392157,0.627450980392157,0.627450980392157);
ENDSEC;
END-ISO-10303-21;
